<svg width="33" height="65" viewBox="0 0 33 65" fill="none" xmlns="http://www.w3.org/2000/svg">
<path fill-rule="evenodd" clip-rule="evenodd" d="M30.9966 44.8936C31.6578 43.2936 31.9967 41.5788 31.9938 39.8476C31.9971 38.1163 31.6584 36.4014 30.9971 34.8013C30.3359 33.2013 29.3651 31.7476 28.1405 30.5237C28.1216 30.5048 28.1024 30.4862 28.0829 30.4679C27.2268 29.1525 26.761 27.6072 26.761 26.0139C26.761 23.8514 27.619 21.7772 29.1466 20.2466C30.3709 19.0224 31.3414 17.5687 32.0026 15.9687C32.6639 14.3687 33.0028 12.6539 32.9999 10.9227C33.0032 9.19137 32.6645 7.47647 32.0032 5.87641C31.342 4.27636 30.3712 2.82267 29.1466 1.5988C28.9131 1.36528 28.6359 1.18004 28.3307 1.05366C28.0256 0.927273 27.6986 0.862225 27.3684 0.862225C27.0381 0.862225 26.7111 0.927273 26.406 1.05366C26.1009 1.18004 25.8236 1.36528 25.5901 1.5988C25.3566 1.83232 25.1714 2.10956 25.045 2.41467C24.9186 2.71978 24.8535 3.0468 24.8535 3.37706C24.8535 3.70731 24.9186 4.03432 25.045 4.33944C25.1714 4.64455 25.3566 4.92178 25.5901 5.15531C27.1165 6.68661 27.9736 8.76055 27.9736 10.9227C27.9736 13.0848 27.1165 15.1588 25.5901 16.6901C23.1219 19.1653 21.7358 22.5183 21.7358 26.0139C21.7358 29.5095 23.1219 32.8625 25.5901 35.3378C25.6081 35.3558 25.6264 35.3735 25.6449 35.3909C26.5016 36.7071 26.9675 38.2534 26.9675 39.8476C26.9675 42.0097 26.1104 44.0836 24.584 45.6149C22.1158 48.0902 20.7298 51.4432 20.7298 54.9388C20.7298 58.4344 22.1158 61.7874 24.584 64.2627C24.8176 64.4962 25.0948 64.6815 25.3999 64.8078C25.705 64.9342 26.032 64.9993 26.3623 64.9993C26.6925 64.9993 27.0196 64.9342 27.3247 64.8078C27.6298 64.6815 27.907 64.4962 28.1405 64.2627C28.3741 64.0292 28.5593 63.7519 28.6857 63.4468C28.8121 63.1417 28.8771 62.8147 28.8771 62.4844C28.8771 62.1542 28.8121 61.8272 28.6857 61.5221C28.5593 61.2169 28.3741 60.9397 28.1405 60.7062C26.6129 59.1755 25.7549 57.1013 25.7549 54.9388C25.7549 52.7763 26.6129 50.7021 28.1405 49.1714C29.3648 47.9473 30.3353 46.4936 30.9966 44.8936ZM20.9357 44.8936C21.597 43.2936 21.9359 41.5788 21.933 39.8476C21.9363 38.1163 21.5976 36.4014 20.9363 34.8013C20.2751 33.2013 19.3043 31.7476 18.0797 30.5237C18.0608 30.5048 18.0415 30.4861 18.0221 30.4679C17.1659 29.1525 16.7002 27.6072 16.7002 26.0139C16.7002 23.8514 17.5582 21.7772 19.0858 20.2466C20.31 19.0224 21.2806 17.5687 21.9418 15.9687C22.603 14.3687 22.9419 12.6539 22.9391 10.9227C22.9424 9.19137 22.6037 7.47647 21.9424 5.87641C21.2811 4.27636 20.3104 2.82267 19.0858 1.5988C18.6142 1.12718 17.9745 0.862225 17.3075 0.862225C16.6406 0.862225 16.0009 1.12718 15.5293 1.5988C15.0577 2.07042 14.7927 2.71008 14.7927 3.37706C14.7927 4.04403 15.0577 4.68369 15.5293 5.15531C17.0557 6.68661 17.9128 8.76055 17.9128 10.9227C17.9128 13.0848 17.0557 15.1588 15.5293 16.6901C13.0611 19.1653 11.675 22.5183 11.675 26.0139C11.675 29.5095 13.0611 32.8625 15.5293 35.3378C15.5473 35.3558 15.5656 35.3735 15.5841 35.3909C16.4407 36.7071 16.9067 38.2534 16.9067 39.8476C16.9067 42.0097 16.0496 44.0836 14.5232 45.6149C12.055 48.0902 10.6689 51.4432 10.6689 54.9388C10.6689 58.4344 12.055 61.7874 14.5232 64.2627C14.9948 64.7343 15.6345 64.9993 16.3014 64.9993C16.9684 64.9993 17.6081 64.7343 18.0797 64.2627C18.5513 63.7911 18.8163 63.1514 18.8163 62.4844C18.8163 61.8175 18.5513 61.1778 18.0797 60.7062C16.5521 59.1755 15.6941 57.1013 15.6941 54.9388C15.6941 52.7763 16.5521 50.7021 18.0797 49.1714C19.3039 47.9473 20.2745 46.4936 20.9357 44.8936ZM10.8749 44.8936C11.5361 43.2936 11.875 41.5788 11.8722 39.8476C11.8754 38.1163 11.5367 36.4014 10.8755 34.8013C10.2142 33.2013 9.24344 31.7476 8.01887 30.5237C7.99993 30.5048 7.98071 30.4861 7.96124 30.4679C7.10509 29.1525 6.63937 27.6072 6.63937 26.0139C6.63937 23.8514 7.49733 21.7772 9.02495 20.2466C10.2492 19.0224 11.2197 17.5687 11.881 15.9687C12.5422 14.3687 12.8811 12.6539 12.8783 10.9227C12.8815 9.19137 12.5428 7.47647 11.8816 5.87641C11.2203 4.27636 10.2495 2.82267 9.02495 1.5988C8.55333 1.12718 7.91367 0.862225 7.2467 0.862225C6.57972 0.862225 5.94007 1.12718 5.46845 1.5988C4.99683 2.07042 4.73187 2.71008 4.73187 3.37706C4.73187 4.04403 4.99683 4.68369 5.46845 5.15531C6.99485 6.68661 7.85196 8.76055 7.85196 10.9227C7.85196 13.0848 6.99485 15.1588 5.46845 16.6901C3.00022 19.1653 1.61418 22.5183 1.61418 26.0139C1.61418 29.5095 3.00022 32.8625 5.46845 35.3378C5.48645 35.3558 5.50472 35.3735 5.52323 35.3909C6.3799 36.7071 6.84588 38.2534 6.84588 39.8476C6.84588 42.0097 5.98876 44.0836 4.46236 45.6149C1.99414 48.0902 0.608093 51.4432 0.608093 54.9388C0.608093 58.4344 1.99414 61.7874 4.46236 64.2627C4.69589 64.4962 4.97312 64.6815 5.27823 64.8078C5.58335 64.9342 5.91036 64.9993 6.24062 64.9993C6.57087 64.9993 6.89789 64.9342 7.203 64.8078C7.50811 64.6815 7.78535 64.4962 8.01887 64.2627C8.25239 64.0292 8.43763 63.7519 8.56402 63.4468C8.6904 63.1417 8.75544 62.8147 8.75544 62.4844C8.75544 62.1542 8.6904 61.8272 8.56402 61.5221C8.43763 61.2169 8.25239 60.9397 8.01887 60.7062C6.49124 59.1755 5.63328 57.1013 5.63328 54.9388C5.63328 52.7763 6.49124 50.7021 8.01887 49.1714C9.24311 47.9473 10.2137 46.4936 10.8749 44.8936Z" fill="#326FCD"/>
</svg>
