<svg width="65" height="33" viewBox="0 0 65 33" fill="none" xmlns="http://www.w3.org/2000/svg">
<path fill-rule="evenodd" clip-rule="evenodd" d="M20.1057 30.9966C21.7057 31.6579 23.4205 31.9968 25.1517 31.9939C26.883 31.9972 28.5979 31.6585 30.198 30.9972C31.798 30.3359 33.2517 29.3652 34.4756 28.1406C34.4945 28.1217 34.5131 28.1025 34.5314 28.083C35.8467 27.2268 37.3921 26.7611 38.9853 26.7611C41.1479 26.7611 43.2221 27.6191 44.7527 29.1467C45.9768 30.3709 47.4306 31.3415 49.0306 32.0027C50.6306 32.6639 52.3453 33.0028 54.0766 33C55.8079 33.0033 57.5228 32.6645 59.1229 32.0033C60.7229 31.342 62.1766 30.3713 63.4005 29.1467C63.634 28.9132 63.8192 28.6359 63.9456 28.3308C64.072 28.0257 64.137 27.6987 64.137 27.3684C64.137 27.0382 64.072 26.7112 63.9456 26.406C63.8192 26.1009 63.634 25.8237 63.4005 25.5902C63.1669 25.3567 62.8897 25.1714 62.5846 25.045C62.2795 24.9186 61.9525 24.8536 61.6222 24.8536C61.292 24.8536 60.9649 24.9186 60.6598 25.045C60.3547 25.1714 60.0775 25.3567 59.844 25.5902C58.3127 27.1166 56.2387 27.9737 54.0766 27.9737C51.9145 27.9737 49.8405 27.1166 48.3092 25.5902C45.8339 23.1219 42.4809 21.7359 38.9853 21.7359C35.4897 21.7359 32.1368 23.1219 29.6615 25.5902C29.6435 25.6082 29.6257 25.6264 29.6083 25.645C28.2922 26.5016 26.7459 26.9676 25.1517 26.9676C22.9896 26.9676 20.9156 26.1105 19.3843 24.5841C16.909 22.1159 13.5561 20.7298 10.0604 20.7298C6.56485 20.7298 3.21187 22.1159 0.736576 24.5841C0.503053 24.8176 0.317812 25.0948 0.19143 25.4C0.0650478 25.7051 0 26.0321 0 26.3623C0 26.6926 0.0650478 27.0196 0.19143 27.3247C0.317812 27.6298 0.503053 27.9071 0.736576 28.1406C0.9701 28.3741 1.24733 28.5594 1.55244 28.6857C1.85756 28.8121 2.18458 28.8772 2.51483 28.8772C2.84508 28.8772 3.1721 28.8121 3.47721 28.6857C3.78232 28.5594 4.05956 28.3741 4.29308 28.1406C5.82373 26.613 7.89792 25.755 10.0604 25.755C12.223 25.755 14.2972 26.613 15.8278 28.1406C17.0519 29.3648 18.5057 30.3354 20.1057 30.9966ZM20.1057 20.9358C21.7057 21.597 23.4205 21.9359 25.1517 21.9331C26.883 21.9363 28.5979 21.5976 30.198 20.9364C31.798 20.2751 33.2517 19.3043 34.4756 18.0798C34.4945 18.0608 34.5131 18.0416 34.5314 18.0221C35.8467 17.166 37.3921 16.7003 38.9853 16.7003C41.1479 16.7003 43.2221 17.5582 44.7527 19.0858C45.9768 20.3101 47.4306 21.2806 49.0306 21.9419C50.6306 22.6031 52.3453 22.942 54.0766 22.9391C55.8079 22.9424 57.5228 22.6037 59.1229 21.9425C60.7229 21.2812 62.1766 20.3104 63.4005 19.0858C63.8721 18.6142 64.137 17.9746 64.137 17.3076C64.137 16.6406 63.8721 16.001 63.4005 15.5293C62.9288 15.0577 62.2892 14.7928 61.6222 14.7928C60.9552 14.7928 60.3156 15.0577 59.844 15.5293C58.3127 17.0557 56.2387 17.9129 54.0766 17.9129C51.9145 17.9129 49.8405 17.0557 48.3092 15.5293C45.8339 13.0611 42.4809 11.6751 38.9853 11.6751C35.4897 11.6751 32.1368 13.0611 29.6615 15.5293C29.6434 15.5474 29.6257 15.5656 29.6083 15.5841C28.2922 16.4408 26.7459 16.9068 25.1517 16.9068C22.9896 16.9068 20.9156 16.0497 19.3843 14.5233C16.909 12.055 13.5561 10.669 10.0604 10.669C6.56485 10.669 3.21187 12.055 0.736576 14.5233C0.264954 14.9949 0 15.6345 0 16.3015C0 16.9685 0.264954 17.6081 0.736576 18.0798C1.2082 18.5514 1.84785 18.8163 2.51483 18.8163C3.1818 18.8163 3.82146 18.5514 4.29308 18.0798C5.82373 16.5521 7.89792 15.6942 10.0604 15.6942C12.223 15.6942 14.2972 16.5521 15.8278 18.0798C17.0519 19.304 18.5057 20.2746 20.1057 20.9358ZM20.1057 10.875C21.7057 11.5362 23.4205 11.8751 25.1517 11.8722C26.883 11.8755 28.5979 11.5368 30.198 10.8755C31.798 10.2143 33.2517 9.2435 34.4756 8.01893C34.4945 7.99999 34.5131 7.98078 34.5314 7.9613C35.8467 7.10515 37.3921 6.63943 38.9853 6.63943C41.1479 6.63943 43.2221 7.49739 44.7527 9.02501C45.9768 10.2492 47.4306 11.2198 49.0306 11.881C50.6306 12.5423 52.3453 12.8812 54.0766 12.8783C55.8079 12.8816 57.5228 12.5429 59.1229 11.8816C60.7229 11.2204 62.1766 10.2496 63.4005 9.02501C63.8721 8.55339 64.137 7.91373 64.137 7.24676C64.137 6.57979 63.8721 5.94013 63.4005 5.46851C62.9288 4.99689 62.2892 4.73193 61.6222 4.73193C60.9552 4.73193 60.3156 4.99689 59.844 5.46851C58.3127 6.99491 56.2387 7.85202 54.0766 7.85202C51.9145 7.85202 49.8405 6.99491 48.3092 5.46851C45.8339 3.00028 42.4809 1.61424 38.9853 1.61424C35.4897 1.61424 32.1368 3.00028 29.6615 5.46851C29.6435 5.48651 29.6257 5.50478 29.6083 5.52329C28.2922 6.37996 26.7459 6.84594 25.1517 6.84594C22.9896 6.84594 20.9156 5.98883 19.3843 4.46243C16.909 1.9942 13.5561 0.608154 10.0604 0.608154C6.56485 0.608154 3.21187 1.9942 0.736576 4.46243C0.503053 4.69595 0.317812 4.97318 0.19143 5.27829C0.0650478 5.58341 0 5.91042 0 6.24068C0 6.57093 0.0650478 6.89795 0.19143 7.20306C0.317812 7.50817 0.503052 7.78541 0.736575 8.01893C0.970098 8.25245 1.24733 8.43769 1.55244 8.56408C1.85756 8.69046 2.18458 8.75551 2.51483 8.75551C2.84508 8.75551 3.1721 8.69046 3.47721 8.56408C3.78232 8.43769 4.05956 8.25245 4.29308 8.01893C5.82373 6.4913 7.89792 5.63334 10.0604 5.63334C12.223 5.63334 14.2972 6.4913 15.8278 8.01893C17.0519 9.24317 18.5057 10.2137 20.1057 10.875Z" fill="#CC4E49"/>
</svg>
