<svg width="500" height="500" viewBox="0 0 500 500" fill="none" xmlns="http://www.w3.org/2000/svg">
<path d="M247.822 79.555C266.63 109.548 321.909 112.445 341.25 94.868C362.75 75.328 345.837 29.063 313.187 42.938C295.912 50.279 282.198 52.371 269.75 48.188C254.125 42.938 236.5 61.5 247.822 79.555Z" fill="#EBD4AE"/>
<path d="M364.812 407.625C378.667 444.629 503.75 354.849 451.331 330.997C414.922 314.429 342.793 348.813 364.812 407.625Z" fill="#EBD4AE"/>
<path d="M44.318 216.501C44.318 333.564 148.5 420.25 243 420.25C337.5 420.25 340.585 347.507 389.503 321.597C448.175 290.521 456.5 236.643 445.089 185.066C433.372 132.105 381.49 112.917 327.681 119.23C227 131.041 239.361 65.757 160.062 72C80.763 78.243 44.318 163.437 44.318 216.501Z" fill="#EBD4AE"/>
<path d="M251.556 380.065L249.328 380.323C248.919 380.37 248.582 380.642 248.416 381.02C248.248 381.402 248.057 381.772 247.846 382.128C247.597 382.546 247.605 383.066 247.908 383.448L248.916 384.72C249.275 385.172 249.237 385.822 248.829 386.23L247.172 387.887C246.764 388.295 246.114 388.333 245.662 387.974L243.906 386.582C243.582 386.325 243.152 386.28 242.767 386.43C242.382 386.58 241.986 386.708 241.579 386.811C241.108 386.931 240.745 387.304 240.69 387.787L240.504 389.398C240.438 389.972 239.952 390.404 239.375 390.404H237.031C236.454 390.404 235.968 389.971 235.902 389.398L235.645 387.171C235.598 386.762 235.325 386.425 234.948 386.259C234.566 386.091 234.195 385.9 233.839 385.689C233.421 385.44 232.901 385.448 232.519 385.751L231.248 386.759C230.796 387.118 230.146 387.08 229.738 386.672L228.081 385.015C227.673 384.607 227.635 383.957 227.994 383.505L229.385 381.75C229.642 381.426 229.687 380.996 229.537 380.611C229.387 380.226 229.259 379.829 229.156 379.423C229.036 378.952 228.663 378.589 228.18 378.534L226.57 378.348C225.996 378.282 225.564 377.796 225.564 377.219V374.875C225.564 374.298 225.997 373.812 226.57 373.746L228.797 373.489C229.206 373.442 229.543 373.169 229.709 372.792C229.877 372.409 230.068 372.039 230.28 371.683C230.529 371.265 230.521 370.744 230.218 370.363L229.21 369.092C228.851 368.64 228.889 367.99 229.297 367.582L230.954 365.925C231.362 365.517 232.012 365.479 232.464 365.838L234.22 367.23C234.544 367.487 234.974 367.532 235.359 367.382C235.744 367.232 236.14 367.104 236.547 367.001C237.018 366.881 237.381 366.508 237.437 366.025L237.623 364.414C237.689 363.84 238.175 363.408 238.752 363.408H241.096C241.673 363.408 242.159 363.841 242.225 364.414L242.483 366.641C242.53 367.05 242.802 367.387 243.18 367.553C243.562 367.721 243.932 367.912 244.289 368.123C244.707 368.372 245.228 368.364 245.609 368.061L246.88 367.053C247.332 366.694 247.982 366.732 248.39 367.14L250.047 368.797C250.455 369.205 250.493 369.855 250.134 370.307L248.742 372.063C248.485 372.387 248.44 372.817 248.59 373.202C248.74 373.587 248.868 373.983 248.971 374.389C249.091 374.86 249.464 375.223 249.947 375.279L251.558 375.465C252.132 375.531 252.564 376.017 252.564 376.594V378.938C252.562 379.513 252.13 379.999 251.556 380.065ZM244.747 376.904C244.747 373.765 242.202 371.22 239.063 371.22C235.924 371.22 233.379 373.765 233.379 376.904C233.379 380.043 235.924 382.588 239.063 382.588C242.202 382.588 244.747 380.044 244.747 376.904Z" fill="white"/>
<path d="M270.791 394.991L269.636 395.124C269.424 395.149 269.249 395.29 269.163 395.485C269.076 395.683 268.977 395.875 268.867 396.06C268.738 396.277 268.742 396.547 268.899 396.744L269.422 397.403C269.608 397.638 269.589 397.974 269.377 398.186L268.518 399.045C268.306 399.257 267.97 399.276 267.735 399.09L266.825 398.368C266.657 398.235 266.434 398.211 266.234 398.289C266.034 398.367 265.829 398.433 265.618 398.487C265.374 398.549 265.186 398.743 265.157 398.993L265.061 399.828C265.027 400.125 264.775 400.35 264.475 400.35H263.26C262.961 400.35 262.709 400.126 262.674 399.828L262.541 398.673C262.516 398.461 262.375 398.286 262.18 398.2C261.982 398.113 261.79 398.014 261.605 397.904C261.388 397.775 261.118 397.779 260.921 397.936L260.262 398.458C260.027 398.644 259.691 398.625 259.479 398.413L258.62 397.554C258.408 397.342 258.389 397.006 258.575 396.771L259.296 395.861C259.429 395.693 259.453 395.47 259.375 395.27C259.297 395.07 259.231 394.865 259.177 394.654C259.115 394.41 258.921 394.222 258.671 394.193L257.836 394.096C257.539 394.062 257.314 393.81 257.314 393.511V392.296C257.314 391.997 257.538 391.745 257.836 391.711L258.99 391.577C259.202 391.552 259.377 391.411 259.463 391.216C259.55 391.018 259.649 390.826 259.759 390.641C259.888 390.424 259.884 390.154 259.727 389.957L259.205 389.298C259.019 389.064 259.038 388.727 259.25 388.515L260.109 387.656C260.321 387.444 260.657 387.425 260.892 387.611L261.802 388.333C261.97 388.466 262.193 388.49 262.392 388.412C262.592 388.334 262.797 388.268 263.008 388.214C263.252 388.152 263.44 387.958 263.469 387.708L263.566 386.873C263.6 386.576 263.852 386.351 264.152 386.351H265.367C265.666 386.351 265.918 386.575 265.953 386.873L266.087 388.028C266.112 388.24 266.253 388.415 266.448 388.501C266.646 388.588 266.838 388.687 267.023 388.797C267.24 388.926 267.51 388.922 267.707 388.765L268.366 388.242C268.601 388.056 268.937 388.075 269.149 388.287L270.008 389.146C270.22 389.358 270.239 389.694 270.053 389.929L269.331 390.84C269.198 391.008 269.174 391.231 269.252 391.43C269.33 391.63 269.396 391.835 269.449 392.046C269.511 392.29 269.705 392.478 269.955 392.507L270.791 392.604C271.088 392.638 271.313 392.89 271.313 393.19V394.405C271.312 394.705 271.088 394.957 270.791 394.991ZM267.26 393.352C267.26 391.724 265.94 390.405 264.313 390.405C262.685 390.405 261.366 391.725 261.366 393.352C261.366 394.979 262.686 396.299 264.313 396.299C265.94 396.299 267.26 394.98 267.26 393.352Z" fill="white"/>
<path d="M271.74 130.948H261.74V132.948H271.74V130.948Z" fill="#D3B78D"/>
<path d="M297.74 136.069H261.74V138.069H297.74V136.069Z" fill="#D3B78D"/>
<path d="M228.528 134.948H188.528C187.976 134.948 187.528 134.5 187.528 133.948V113.948C187.528 113.396 187.976 112.948 188.528 112.948H228.528C229.08 112.948 229.528 113.396 229.528 113.948V133.948C229.528 134.5 229.08 134.948 228.528 134.948Z" fill="#E59E47"/>
<path d="M208.528 128.207C208.478 128.207 208.428 128.192 208.384 128.164L187.384 114.164C187.265 114.085 187.233 113.924 187.312 113.805C187.392 113.686 187.552 113.654 187.671 113.733L208.527 127.637L229.383 113.733C229.502 113.653 229.662 113.686 229.742 113.805C229.821 113.924 229.789 114.085 229.67 114.164L208.67 128.164C208.628 128.192 208.578 128.207 208.528 128.207Z" fill="#1F160F"/>
<path d="M225.764 131.537C225.706 131.537 225.647 131.517 225.599 131.477L215.686 123.265C215.576 123.174 215.561 123.011 215.652 122.901C215.743 122.791 215.906 122.775 216.016 122.867L225.929 131.079C226.039 131.17 226.055 131.333 225.963 131.443C225.912 131.505 225.838 131.537 225.764 131.537Z" fill="#1F160F"/>
<path d="M191.292 131.537C191.218 131.537 191.144 131.505 191.093 131.443C191.002 131.333 191.017 131.17 191.127 131.079L201.04 122.867C201.15 122.776 201.312 122.791 201.404 122.901C201.495 123.011 201.48 123.174 201.37 123.265L191.457 131.477C191.409 131.518 191.35 131.537 191.292 131.537Z" fill="#1F160F"/>
<path d="M396.492 380.271C396.294 380.271 396.094 380.195 395.943 380.043C395.64 379.74 395.64 379.248 395.943 378.945L409.885 365.003C410.188 364.7 410.68 364.7 410.983 365.003L418.211 372.231L438.949 351.492C439.252 351.189 439.744 351.189 440.047 351.492C440.35 351.795 440.35 352.287 440.047 352.59L418.76 373.878C418.469 374.169 417.953 374.169 417.662 373.878L410.434 366.65L397.04 380.044C396.89 380.194 396.69 380.271 396.492 380.271Z" fill="#1F160F"/>
<path d="M439.498 366.486C439.069 366.486 438.722 366.138 438.722 365.71V352.816H425.829C425.4 352.816 425.053 352.468 425.053 352.04C425.053 351.611 425.401 351.264 425.829 351.264H439.498C439.927 351.264 440.274 351.612 440.274 352.04V365.71C440.274 366.139 439.927 366.486 439.498 366.486Z" fill="#1F160F"/>
<path d="M326.125 87.327H276.125C275.02 87.327 274.125 86.432 274.125 85.327V61.327C274.125 60.222 275.02 59.327 276.125 59.327H326.125C327.23 59.327 328.125 60.222 328.125 61.327V85.327C328.125 86.432 327.23 87.327 326.125 87.327Z" fill="white"/>
<path d="M301.125 75.327C302.23 75.327 303.125 74.4316 303.125 73.327C303.125 72.2225 302.23 71.327 301.125 71.327C300.02 71.327 299.125 72.2225 299.125 73.327C299.125 74.4316 300.02 75.327 301.125 75.327Z" fill="#1F160F"/>
<path d="M315.187 75.327C316.292 75.327 317.187 74.4316 317.187 73.327C317.187 72.2225 316.292 71.327 315.187 71.327C314.082 71.327 313.187 72.2225 313.187 73.327C313.187 74.4316 314.082 75.327 315.187 75.327Z" fill="#1F160F"/>
<path d="M287.062 75.327C288.167 75.327 289.062 74.4316 289.062 73.327C289.062 72.2225 288.167 71.327 287.062 71.327C285.957 71.327 285.062 72.2225 285.062 73.327C285.062 74.4316 285.957 75.327 287.062 75.327Z" fill="#1F160F"/>
<path d="M278.125 85.327V101.026L289.062 85.327H278.125Z" fill="white"/>
<path d="M103.99 167.59C126.081 167.59 143.99 149.681 143.99 127.59C143.99 105.499 126.081 87.59 103.99 87.59C81.8986 87.59 63.99 105.499 63.99 127.59C63.99 149.681 81.8986 167.59 103.99 167.59Z" fill="#CC4E49"/>
<path d="M103.99 158.59C121.111 158.59 134.99 144.711 134.99 127.59C134.99 110.469 121.111 96.59 103.99 96.59C86.8692 96.59 72.99 110.469 72.99 127.59C72.99 144.711 86.8692 158.59 103.99 158.59Z" fill="white"/>
<path d="M103.99 158.849C86.754 158.849 72.731 144.827 72.731 127.59C72.731 110.354 86.753 96.3309 103.99 96.3309C110.244 96.3309 116.283 98.1799 121.455 101.677C121.573 101.757 121.604 101.918 121.524 102.036C121.445 102.155 121.283 102.184 121.165 102.105C116.079 98.6649 110.14 96.8479 103.99 96.8479C87.039 96.8479 73.249 110.639 73.249 127.589C73.249 144.54 87.04 158.33 103.99 158.33C104.133 158.33 104.249 158.446 104.249 158.589C104.249 158.733 104.133 158.849 103.99 158.849Z" fill="#1F160F"/>
<path d="M103.99 146.59C114.483 146.59 122.99 138.083 122.99 127.59C122.99 117.097 114.483 108.59 103.99 108.59C93.4966 108.59 84.99 117.097 84.99 127.59C84.99 138.083 93.4966 146.59 103.99 146.59Z" fill="#CC4E49"/>
<path d="M103.99 146.849C103.847 146.849 103.731 146.733 103.731 146.59C103.731 146.447 103.847 146.331 103.99 146.331C114.324 146.331 122.731 137.924 122.731 127.59C122.731 127.447 122.847 127.331 122.99 127.331C123.133 127.331 123.249 127.447 123.249 127.59C123.249 138.209 114.609 146.849 103.99 146.849Z" fill="#1F160F"/>
<path d="M103.99 139.59C110.617 139.59 115.99 134.217 115.99 127.59C115.99 120.963 110.617 115.59 103.99 115.59C97.3626 115.59 91.99 120.963 91.99 127.59C91.99 134.217 97.3626 139.59 103.99 139.59Z" fill="white"/>
<path d="M103.99 130.589C105.647 130.589 106.99 129.246 106.99 127.589C106.99 125.932 105.647 124.589 103.99 124.589C102.333 124.589 100.99 125.932 100.99 127.589C100.99 129.246 102.333 130.589 103.99 130.589Z" fill="#CC4E49"/>
<path d="M103.99 128.366C103.791 128.366 103.593 128.29 103.441 128.138C103.138 127.835 103.138 127.344 103.441 127.04L145.867 84.614C146.17 84.311 146.662 84.311 146.965 84.614C147.268 84.917 147.268 85.408 146.965 85.712L104.539 128.138C104.388 128.29 104.189 128.366 103.99 128.366Z" fill="#1F160F"/>
<path d="M148.117 83.456L155.316 86.157L143.295 98.178L136.097 95.477L133.395 88.278L145.416 76.257L148.117 83.456Z" fill="#E59E47"/>
<path d="M392.774 168.592C409.895 168.592 423.774 154.713 423.774 137.592C423.774 120.471 409.895 106.592 392.774 106.592C375.653 106.592 361.774 120.471 361.774 137.592C361.774 154.713 375.653 168.592 392.774 168.592Z" fill="#FABC5F"/>
<path d="M419.995 122.771C419.747 122.317 419.486 121.87 419.216 121.429L394.894 135.472L408.936 111.15C408.496 110.88 408.049 110.619 407.594 110.371L393.55 134.696V106.612C393.291 106.606 393.034 106.592 392.773 106.592C392.513 106.592 392.256 106.605 391.997 106.612V134.696L377.953 110.371C377.499 110.619 377.052 110.88 376.611 111.15L390.654 135.473L366.331 121.43C366.061 121.87 365.801 122.317 365.552 122.772L389.877 136.816H361.793C361.786 137.075 361.773 137.332 361.773 137.592C361.773 137.852 361.786 138.11 361.793 138.368H389.877L365.552 152.412C365.8 152.866 366.061 153.313 366.331 153.754L390.654 139.711L376.611 164.034C377.051 164.304 377.498 164.565 377.953 164.813L391.997 140.488V168.572C392.256 168.578 392.513 168.592 392.773 168.592C393.033 168.592 393.291 168.579 393.55 168.572V140.488L407.594 164.813C408.049 164.565 408.495 164.304 408.936 164.034L394.894 139.712L419.216 153.755C419.486 153.315 419.746 152.868 419.995 152.413L395.67 138.369H423.754C423.76 138.11 423.774 137.853 423.774 137.593C423.774 137.333 423.761 137.075 423.754 136.817H395.67L419.995 122.771Z" fill="#E59E47"/>
<path d="M413.509 160.877C413.439 160.877 413.368 160.848 413.317 160.792C413.221 160.686 413.23 160.522 413.337 160.426C419.806 154.595 423.517 146.272 423.517 137.592C423.517 120.641 409.727 106.851 392.776 106.851C375.825 106.851 362.035 120.641 362.035 137.592C362.035 137.735 361.919 137.851 361.776 137.851C361.633 137.851 361.517 137.735 361.517 137.592C361.517 120.356 375.539 106.333 392.776 106.333C410.013 106.333 424.035 120.355 424.035 137.592C424.035 146.419 420.263 154.882 413.683 160.811C413.633 160.855 413.57 160.877 413.509 160.877Z" fill="#1F160F"/>
<path d="M392.774 162.592C406.581 162.592 417.774 151.399 417.774 137.592C417.774 123.785 406.581 112.592 392.774 112.592C378.967 112.592 367.774 123.785 367.774 137.592C367.774 151.399 378.967 162.592 392.774 162.592Z" fill="#E59E47"/>
<path d="M374.012 154.373C373.941 154.373 373.869 154.343 373.818 154.285C369.754 149.673 367.516 143.745 367.516 137.592C367.516 130.253 370.702 123.286 376.259 118.48C376.367 118.388 376.53 118.398 376.623 118.506C376.717 118.614 376.705 118.777 376.597 118.871C371.155 123.579 368.033 130.402 368.033 137.591C368.033 143.618 370.225 149.425 374.206 153.943C374.301 154.05 374.29 154.213 374.183 154.308C374.134 154.352 374.072 154.373 374.012 154.373Z" fill="#1F160F"/>
<path d="M402.888 139.846C402.299 138.916 401.517 138.168 400.547 137.603C399.576 137.039 398.513 136.581 397.358 136.226C396.463 135.952 395.554 135.729 394.643 135.509V127.597C395.475 127.675 396.321 127.803 397.2 128.04C398.512 128.395 399.784 128.939 401.018 129.673L402.632 125.698C401.425 124.911 400.008 124.308 398.381 123.888C397.142 123.569 395.896 123.373 394.643 123.297V118.931H391.416V123.361C389.798 123.514 388.394 123.848 387.224 124.381C385.584 125.129 384.363 126.127 383.564 127.372C382.763 128.619 382.364 129.989 382.364 131.484C382.364 132.953 382.659 134.16 383.249 135.106C383.839 136.05 384.62 136.805 385.591 137.368C386.561 137.933 387.63 138.398 388.799 138.764C389.671 139.04 390.544 139.27 391.416 139.478V147.291C390.133 147.186 388.874 146.916 387.637 146.478C386.01 145.9 384.647 145.179 383.545 144.313L381.773 148.288C382.954 149.259 384.521 150.052 386.476 150.668C388.057 151.166 389.706 151.453 391.416 151.549V155.922H394.643V151.498C396.281 151.347 397.703 151.01 398.892 150.473C400.546 149.725 401.772 148.728 402.573 147.482C403.372 146.236 403.773 144.879 403.773 143.408C403.774 141.965 403.478 140.777 402.888 139.846ZM390.65 134.474C389.692 134.186 388.918 133.785 388.327 133.274C387.736 132.763 387.442 132.088 387.442 131.247C387.442 130.566 387.645 129.942 388.052 129.378C388.458 128.814 389.108 128.361 390.001 128.02C390.417 127.861 390.893 127.743 391.418 127.658V134.688C391.161 134.617 390.891 134.547 390.65 134.474ZM398.107 145.591C397.687 146.129 397.031 146.556 396.139 146.871C395.707 147.024 395.206 147.138 394.644 147.216V140.274C394.927 140.354 395.222 140.432 395.49 140.516C396.447 140.817 397.228 141.223 397.832 141.735C398.435 142.246 398.738 142.923 398.738 143.762C398.737 144.445 398.526 145.055 398.107 145.591Z" fill="#F5E5C9"/>
<path d="M393 159.398H370.766C376.387 165.071 384.176 168.591 392.775 168.591C394.056 168.591 395.316 168.504 396.557 168.352L393 159.398Z" fill="#1F160F"/>
<path d="M393 159.398H107V343.398H393V159.398Z" fill="white"/>
<path d="M393 159.398H107V173.398H393V159.398Z" fill="#496099"/>
<path d="M366.419 170.175H354.419C353.99 170.175 353.643 169.827 353.643 169.399V163.399C353.643 162.97 353.991 162.623 354.419 162.623H366.419C366.848 162.623 367.195 162.971 367.195 163.399V169.399C367.195 169.827 366.848 170.175 366.419 170.175ZM355.195 168.622H365.642V164.175H355.195V168.622Z" fill="white"/>
<path d="M345.837 167.242H333.837C333.408 167.242 333.061 166.894 333.061 166.466C333.061 166.037 333.409 165.69 333.837 165.69H345.837C346.266 165.69 346.613 166.038 346.613 166.466C346.613 166.895 346.266 167.242 345.837 167.242Z" fill="white"/>
<path d="M386.999 170.175C386.883 170.175 386.765 170.149 386.653 170.093L374.653 164.093C374.269 163.901 374.114 163.435 374.305 163.051C374.495 162.667 374.96 162.511 375.346 162.704L387.346 168.704C387.73 168.896 387.885 169.362 387.694 169.746C387.559 170.018 387.284 170.175 386.999 170.175Z" fill="white"/>
<path d="M375.001 170.175C374.716 170.175 374.441 170.018 374.306 169.746C374.115 169.363 374.27 168.896 374.654 168.704L386.654 162.704C387.04 162.513 387.505 162.668 387.695 163.051C387.886 163.434 387.731 163.901 387.347 164.093L375.347 170.093C375.235 170.148 375.117 170.175 375.001 170.175Z" fill="white"/>
<path d="M173.08 217.92C173.08 231.73 161.89 242.92 148.08 242.92C134.27 242.92 123.08 231.73 123.08 217.92C123.08 204.11 134.27 192.92 148.08 192.92V204.92C140.91 204.92 135.08 210.75 135.08 217.92C135.08 225.09 140.91 230.92 148.08 230.92C155.25 230.92 161.08 225.09 161.08 217.92H173.08Z" fill="#E59E47"/>
<path d="M175.08 215.92H163.08C163.08 208.75 157.25 202.92 150.08 202.92V190.92C163.89 190.92 175.08 202.11 175.08 215.92Z" fill="#1C8C4F"/>
<path d="M173.08 217.92H161.08C161.08 225.09 155.25 230.92 148.08 230.92C144.41 230.92 141.098 229.387 138.732 226.934L130.238 235.428C134.774 240.05 141.09 242.92 148.08 242.92C161.89 242.92 173.08 231.73 173.08 217.92Z" fill="#CC4E49"/>
<path d="M197.033 198.467H193.033V202.467H197.033V198.467Z" fill="#1F160F"/>
<path d="M263.254 199.967H205.254V200.967H263.254V199.967Z" fill="#1F160F"/>
<path d="M197.033 209.436H193.033V213.436H197.033V209.436Z" fill="#1F160F"/>
<path d="M263.254 210.936H205.254V211.936H263.254V210.936Z" fill="#1F160F"/>
<path d="M197.033 220.404H193.033V224.404H197.033V220.404Z" fill="#1F160F"/>
<path d="M263.254 221.904H205.254V222.904H263.254V221.904Z" fill="#1F160F"/>
<path d="M197.033 231.373H193.033V235.373H197.033V231.373Z" fill="#1F160F"/>
<path d="M263.254 232.873H205.254V233.873H263.254V232.873Z" fill="#1F160F"/>
<path d="M248.438 287.482C248.201 287.482 247.967 287.374 247.815 287.169C247.559 286.824 247.631 286.338 247.974 286.082L269.473 270.082C269.748 269.879 270.125 269.879 270.401 270.082L291.595 285.855L334.228 273.957C334.651 273.849 335.07 274.085 335.185 274.496C335.3 274.909 335.058 275.338 334.646 275.453L291.646 287.453C291.412 287.517 291.167 287.472 290.973 287.328L269.937 271.673L248.9 287.328C248.762 287.433 248.599 287.482 248.438 287.482Z" fill="#EBD4AE"/>
<path d="M229.884 308.884H226.884C226.741 308.884 226.625 308.768 226.625 308.625C226.625 308.482 226.741 308.366 226.884 308.366H229.884C230.027 308.366 230.143 308.482 230.143 308.625C230.143 308.768 230.027 308.884 229.884 308.884Z" fill="#1F160F"/>
<path d="M229.884 299.208H226.884C226.741 299.208 226.625 299.092 226.625 298.949C226.625 298.806 226.741 298.69 226.884 298.69H229.884C230.027 298.69 230.143 298.806 230.143 298.949C230.143 299.092 230.027 299.208 229.884 299.208Z" fill="#1F160F"/>
<path d="M229.884 289.532H226.884C226.741 289.532 226.625 289.416 226.625 289.273C226.625 289.13 226.741 289.014 226.884 289.014H229.884C230.027 289.014 230.143 289.13 230.143 289.273C230.143 289.416 230.027 289.532 229.884 289.532Z" fill="#1F160F"/>
<path d="M229.884 279.856H226.884C226.741 279.856 226.625 279.74 226.625 279.597C226.625 279.454 226.741 279.338 226.884 279.338H229.884C230.027 279.338 230.143 279.454 230.143 279.597C230.143 279.74 230.027 279.856 229.884 279.856Z" fill="#1F160F"/>
<path d="M229.884 270.181H226.884C226.741 270.181 226.625 270.065 226.625 269.922C226.625 269.779 226.741 269.663 226.884 269.663H229.884C230.027 269.663 230.143 269.779 230.143 269.922C230.143 270.065 230.027 270.181 229.884 270.181Z" fill="#1F160F"/>
<path d="M252.437 293.706H244.437V317.706H252.437V293.706Z" fill="#E59E47"/>
<path d="M273.937 277.706H265.937V317.706H273.937V277.706Z" fill="#E59E47"/>
<path d="M295.437 293.706H287.437V317.706H295.437V293.706Z" fill="#E59E47"/>
<path d="M316.937 287.706H308.937V317.706H316.937V287.706Z" fill="#E59E47"/>
<path d="M338.437 281.706H330.437V317.706H338.437V281.706Z" fill="#E59E47"/>
<path d="M248.437 288.706C249.542 288.706 250.437 287.811 250.437 286.706C250.437 285.601 249.542 284.706 248.437 284.706C247.332 284.706 246.437 285.601 246.437 286.706C246.437 287.811 247.332 288.706 248.437 288.706Z" fill="#CC4E49"/>
<path d="M269.937 272.706C271.042 272.706 271.937 271.811 271.937 270.706C271.937 269.601 271.042 268.706 269.937 268.706C268.832 268.706 267.937 269.601 267.937 270.706C267.937 271.811 268.832 272.706 269.937 272.706Z" fill="#CC4E49"/>
<path d="M291.437 288.706C292.542 288.706 293.437 287.811 293.437 286.706C293.437 285.601 292.542 284.706 291.437 284.706C290.332 284.706 289.437 285.601 289.437 286.706C289.437 287.811 290.332 288.706 291.437 288.706Z" fill="#CC4E49"/>
<path d="M312.937 282.706C314.042 282.706 314.937 281.811 314.937 280.706C314.937 279.601 314.042 278.706 312.937 278.706C311.832 278.706 310.937 279.601 310.937 280.706C310.937 281.811 311.832 282.706 312.937 282.706Z" fill="#CC4E49"/>
<path d="M334.437 276.706C335.542 276.706 336.437 275.811 336.437 274.706C336.437 273.601 335.542 272.706 334.437 272.706C333.332 272.706 332.437 273.601 332.437 274.706C332.437 275.811 333.332 276.706 334.437 276.706Z" fill="#CC4E49"/>
<path d="M352.384 317.965H228.384C228.241 317.965 228.125 317.849 228.125 317.706V267.706C228.125 267.563 228.241 267.447 228.384 267.447C228.527 267.447 228.643 267.563 228.643 267.706V317.447H352.384C352.527 317.447 352.643 317.563 352.643 317.706C352.643 317.849 352.526 317.965 352.384 317.965Z" fill="#1F160F"/>
<path d="M300.437 198.978H286.437V202.978H300.437V198.978Z" fill="#E59E47"/>
<path d="M336.437 206.936H286.437V210.936H336.437V206.936Z" fill="#E59E47"/>
<path d="M300.437 214.893H286.437V218.893H300.437V214.893Z" fill="#E59E47"/>
<path d="M336.437 222.851H286.437V226.851H336.437V222.851Z" fill="#E59E47"/>
<path d="M300.437 230.809H286.437V234.809H300.437V230.809Z" fill="#E59E47"/>
<path d="M336.437 238.767H286.437V242.767H336.437V238.767Z" fill="#E59E47"/>
<path d="M434.627 269.647L413.414 248.434L407.757 254.091L428.97 275.304L434.627 269.647Z" fill="#1F160F"/>
<path d="M393 259.906C387.096 259.92 381.187 257.677 376.683 253.172C367.701 244.19 367.701 229.627 376.683 220.645C381.188 216.14 387.096 213.897 393 213.911V205.91C385.049 205.896 377.093 208.922 371.026 214.989C358.92 227.095 358.92 246.723 371.026 258.829C377.093 264.896 385.049 267.921 393 267.907V259.906Z" fill="#1F160F"/>
<path d="M376.683 248.578C367.701 239.596 367.701 225.033 376.683 216.051C385.665 207.069 400.228 207.069 409.21 216.051C418.192 225.033 418.192 239.596 409.21 248.578C400.228 257.56 385.665 257.56 376.683 248.578ZM414.867 254.235C426.973 242.129 426.973 222.501 414.867 210.394C402.761 198.288 383.133 198.288 371.026 210.394C358.92 222.5 358.92 242.128 371.026 254.235C383.132 266.341 402.76 266.341 414.867 254.235Z" fill="#CC4E49"/>
<path d="M450.185 300.764L427.558 278.136C426.777 277.355 426.777 276.089 427.558 275.308L434.629 268.237C435.41 267.456 436.676 267.456 437.457 268.237L460.084 290.865C460.865 291.646 460.865 292.912 460.084 293.693L453.013 300.764C452.232 301.545 450.966 301.545 450.185 300.764Z" fill="#E59E47"/>
<path d="M459.894 290.672L449.993 300.57L450.359 300.935L460.26 291.037L459.894 290.672Z" fill="#1F160F"/>
<path d="M392.946 255.561C386.99 255.561 381.034 253.294 376.5 248.761C376.398 248.66 376.398 248.496 376.5 248.395C376.6 248.294 376.766 248.294 376.865 248.395C385.732 257.262 400.16 257.262 409.027 248.395C417.892 239.528 417.892 225.101 409.027 216.234C408.925 216.133 408.925 215.969 409.027 215.868C409.127 215.767 409.293 215.767 409.392 215.868C418.46 224.937 418.46 239.693 409.392 248.761C404.858 253.295 398.902 255.561 392.946 255.561Z" fill="#1F160F"/>
<path d="M107 343.398H199.998L187.998 266.5H107V343.398Z" fill="#1F160F"/>
<path d="M187.998 390.5L155.998 422.5H73.998V266.5H187.998V390.5Z" fill="#496099"/>
<path d="M155.998 390.5H187.998L155.998 422.5V390.5Z" fill="white"/>
<path d="M150.998 279.034H110.998V285.034H150.998V279.034Z" fill="white"/>
<path d="M173.998 300.199H87.998V302.199H173.998V300.199Z" fill="white"/>
<path d="M173.998 308.784H87.998V310.784H173.998V308.784Z" fill="white"/>
<path d="M173.998 317.368H87.998V319.368H173.998V317.368Z" fill="white"/>
<path d="M143.998 325.953H87.998V327.953H143.998V325.953Z" fill="white"/>
<path d="M96.998 359.03C92.027 359.03 87.998 355.001 87.998 350.03C87.998 345.059 92.027 341.03 96.998 341.03C101.968 341.03 105.998 345.059 105.998 350.03C105.998 355 101.969 359.03 96.998 359.03ZM104.799 350.03C104.799 345.729 101.3 342.23 96.999 342.23C92.698 342.23 89.199 345.729 89.199 350.03C89.199 354.331 92.698 357.83 96.999 357.83C101.3 357.83 104.799 354.331 104.799 350.03Z" fill="#1C8C4F"/>
<path d="M95.062 364.344H89.062V365.344H95.062V364.344Z" fill="white"/>
<path d="M104.998 367.203H88.998V368.203H104.998V367.203Z" fill="white"/>
<path d="M95.062 373.781H89.062V374.781H95.062V373.781Z" fill="white"/>
<path d="M104.998 376.641H88.998V377.641H104.998V376.641Z" fill="white"/>
<path d="M130.998 359.03C126.027 359.03 121.998 355.001 121.998 350.03C121.998 345.059 126.027 341.03 130.998 341.03C135.968 341.03 139.998 345.059 139.998 350.03C139.998 355 135.969 359.03 130.998 359.03ZM138.799 350.03C138.799 345.729 135.3 342.23 130.999 342.23C126.698 342.23 123.199 345.729 123.199 350.03C123.199 354.331 126.698 357.83 130.999 357.83C135.3 357.83 138.799 354.331 138.799 350.03Z" fill="#E59E47"/>
<path d="M129.062 364.344H123.062V365.344H129.062V364.344Z" fill="white"/>
<path d="M138.998 367.203H122.998V368.203H138.998V367.203Z" fill="white"/>
<path d="M129.062 373.781H123.062V374.781H129.062V373.781Z" fill="white"/>
<path d="M138.998 376.641H122.998V377.641H138.998V376.641Z" fill="white"/>
<path d="M164.998 359.03C160.027 359.03 155.998 355.001 155.998 350.03C155.998 345.059 160.027 341.03 164.998 341.03C169.968 341.03 173.998 345.059 173.998 350.03C173.998 355 169.969 359.03 164.998 359.03ZM172.799 350.03C172.799 345.729 169.3 342.23 164.999 342.23C160.698 342.23 157.199 345.729 157.199 350.03C157.199 354.331 160.698 357.83 164.999 357.83C169.3 357.83 172.799 354.331 172.799 350.03Z" fill="#CC4E49"/>
<path d="M163.062 364.344H157.062V365.344H163.062V364.344Z" fill="white"/>
<path d="M172.998 367.203H156.998V368.203H172.998V367.203Z" fill="white"/>
<path d="M163.062 373.781H157.062V374.781H163.062V373.781Z" fill="white"/>
<path d="M172.998 376.641H156.998V377.641H172.998V376.641Z" fill="white"/>
<path d="M372.793 376.463H312.793V422.463H372.793V376.463Z" fill="#1F160F"/>
<path d="M363.395 336.477H319.395V404.477H363.395V336.477Z" fill="#1C8C4F"/>
<path d="M348.395 346.813H334.395V348.813H348.395V346.813Z" fill="#F5E5C9"/>
<path d="M359.395 354.849H323.395V355.849H359.395V354.849Z" fill="#F5E5C9"/>
<path d="M359.395 360.358H323.395V361.358H359.395V360.358Z" fill="#F5E5C9"/>
<path d="M359.395 365.867H323.395V366.867H359.395V365.867Z" fill="#F5E5C9"/>
<path d="M333.395 377.867H323.395V378.867H333.395V377.867Z" fill="#F5E5C9"/>
<path d="M359.395 377.867H349.395V378.867H359.395V377.867Z" fill="#F5E5C9"/>
<path d="M320.715 384.463H304.715L312.793 422.463H372.793L366.416 392.463H328.416L320.715 384.463Z" fill="#E59E47"/>
<path d="M126.627 351.508V351.073L128.017 349.753C128.134 349.643 128.221 349.546 128.277 349.463C128.334 349.379 128.371 349.303 128.387 349.233C128.407 349.159 128.417 349.091 128.417 349.028C128.417 348.868 128.362 348.744 128.252 348.658C128.142 348.568 127.981 348.523 127.767 348.523C127.597 348.523 127.442 348.553 127.302 348.613C127.166 348.673 127.047 348.764 126.947 348.888L126.492 348.538C126.629 348.354 126.812 348.213 127.042 348.113C127.276 348.009 127.536 347.958 127.822 347.958C128.076 347.958 128.296 347.999 128.482 348.083C128.672 348.163 128.817 348.278 128.917 348.428C129.021 348.578 129.072 348.756 129.072 348.963C129.072 349.076 129.057 349.189 129.027 349.303C128.997 349.413 128.941 349.529 128.857 349.653C128.774 349.776 128.652 349.914 128.492 350.068L127.297 351.203L127.162 350.958H129.207V351.508H126.627ZM130.743 351.558C130.496 351.558 130.254 351.523 130.018 351.453C129.784 351.379 129.588 351.279 129.428 351.153L129.703 350.648C129.829 350.751 129.983 350.834 130.163 350.898C130.346 350.961 130.536 350.993 130.733 350.993C130.963 350.993 131.143 350.944 131.273 350.848C131.406 350.751 131.473 350.621 131.473 350.458C131.473 350.348 131.444 350.251 131.388 350.168C131.334 350.084 131.238 350.021 131.098 349.978C130.961 349.934 130.773 349.913 130.533 349.913H129.688L129.868 348.008H131.923V348.553H130.108L130.448 348.243L130.313 349.668L129.973 349.363H130.678C131.024 349.363 131.303 349.409 131.513 349.503C131.726 349.593 131.881 349.719 131.978 349.883C132.078 350.043 132.128 350.226 132.128 350.433C132.128 350.636 132.078 350.823 131.978 350.993C131.878 351.163 131.724 351.299 131.518 351.403C131.314 351.506 131.056 351.558 130.743 351.558ZM132.944 351.508L135.334 348.008H135.824L133.434 351.508H132.944ZM133.234 349.893C133.07 349.893 132.925 349.853 132.799 349.773C132.672 349.693 132.574 349.581 132.504 349.438C132.434 349.294 132.399 349.126 132.399 348.933C132.399 348.739 132.434 348.571 132.504 348.428C132.574 348.284 132.672 348.173 132.799 348.093C132.925 348.013 133.07 347.973 133.234 347.973C133.404 347.973 133.55 348.013 133.674 348.093C133.8 348.173 133.899 348.284 133.969 348.428C134.039 348.571 134.074 348.739 134.074 348.933C134.074 349.126 134.039 349.294 133.969 349.438C133.899 349.581 133.8 349.693 133.674 349.773C133.55 349.853 133.404 349.893 133.234 349.893ZM133.239 349.543C133.372 349.543 133.475 349.491 133.549 349.388C133.625 349.281 133.664 349.129 133.664 348.933C133.664 348.736 133.625 348.586 133.549 348.483C133.475 348.376 133.372 348.323 133.239 348.323C133.105 348.323 132.999 348.376 132.919 348.483C132.842 348.589 132.804 348.739 132.804 348.933C132.804 349.126 132.842 349.276 132.919 349.383C132.999 349.489 133.105 349.543 133.239 349.543ZM135.529 351.543C135.365 351.543 135.22 351.503 135.094 351.423C134.967 351.343 134.869 351.231 134.799 351.088C134.729 350.944 134.694 350.776 134.694 350.583C134.694 350.389 134.729 350.221 134.799 350.078C134.869 349.934 134.967 349.823 135.094 349.743C135.22 349.663 135.365 349.623 135.529 349.623C135.699 349.623 135.845 349.663 135.969 349.743C136.095 349.823 136.194 349.934 136.264 350.078C136.334 350.221 136.369 350.389 136.369 350.583C136.369 350.776 136.334 350.944 136.264 351.088C136.194 351.231 136.095 351.343 135.969 351.423C135.845 351.503 135.699 351.543 135.529 351.543ZM135.529 351.193C135.662 351.193 135.767 351.139 135.844 351.033C135.92 350.926 135.959 350.776 135.959 350.583C135.959 350.389 135.92 350.239 135.844 350.133C135.767 350.026 135.662 349.973 135.529 349.973C135.399 349.973 135.294 350.026 135.214 350.133C135.137 350.236 135.099 350.386 135.099 350.583C135.099 350.779 135.137 350.931 135.214 351.038C135.294 351.141 135.399 351.193 135.529 351.193Z" fill="white"/>
<path d="M161.772 351.558C161.526 351.558 161.284 351.523 161.047 351.453C160.814 351.379 160.617 351.279 160.457 351.153L160.737 350.648C160.864 350.751 161.017 350.834 161.197 350.898C161.377 350.961 161.566 350.993 161.762 350.993C161.996 350.993 162.177 350.946 162.307 350.853C162.437 350.756 162.502 350.626 162.502 350.463C162.502 350.303 162.442 350.176 162.322 350.083C162.202 349.989 162.009 349.943 161.742 349.943H161.422V349.498L162.422 348.308L162.507 348.553H160.627V348.008H163.012V348.443L162.012 349.633L161.672 349.433H161.867C162.297 349.433 162.619 349.529 162.832 349.723C163.049 349.913 163.157 350.158 163.157 350.458C163.157 350.654 163.107 350.836 163.007 351.003C162.907 351.169 162.754 351.304 162.547 351.408C162.344 351.508 162.086 351.558 161.772 351.558ZM164.694 351.558C164.447 351.558 164.205 351.523 163.969 351.453C163.735 351.379 163.539 351.279 163.379 351.153L163.654 350.648C163.78 350.751 163.934 350.834 164.114 350.898C164.297 350.961 164.487 350.993 164.684 350.993C164.914 350.993 165.094 350.944 165.224 350.848C165.357 350.751 165.424 350.621 165.424 350.458C165.424 350.348 165.395 350.251 165.339 350.168C165.285 350.084 165.189 350.021 165.049 349.978C164.912 349.934 164.724 349.913 164.484 349.913H163.639L163.819 348.008H165.874V348.553H164.059L164.399 348.243L164.264 349.668L163.924 349.363H164.629C164.975 349.363 165.254 349.409 165.464 349.503C165.677 349.593 165.832 349.719 165.929 349.883C166.029 350.043 166.079 350.226 166.079 350.433C166.079 350.636 166.029 350.823 165.929 350.993C165.829 351.163 165.675 351.299 165.469 351.403C165.265 351.506 165.007 351.558 164.694 351.558ZM166.895 351.508L169.285 348.008H169.775L167.385 351.508H166.895ZM167.185 349.893C167.021 349.893 166.876 349.853 166.75 349.773C166.623 349.693 166.525 349.581 166.455 349.438C166.385 349.294 166.35 349.126 166.35 348.933C166.35 348.739 166.385 348.571 166.455 348.428C166.525 348.284 166.623 348.173 166.75 348.093C166.876 348.013 167.021 347.973 167.185 347.973C167.355 347.973 167.501 348.013 167.625 348.093C167.751 348.173 167.85 348.284 167.92 348.428C167.99 348.571 168.025 348.739 168.025 348.933C168.025 349.126 167.99 349.294 167.92 349.438C167.85 349.581 167.751 349.693 167.625 349.773C167.501 349.853 167.355 349.893 167.185 349.893ZM167.19 349.543C167.323 349.543 167.426 349.491 167.5 349.388C167.576 349.281 167.615 349.129 167.615 348.933C167.615 348.736 167.576 348.586 167.5 348.483C167.426 348.376 167.323 348.323 167.19 348.323C167.056 348.323 166.95 348.376 166.87 348.483C166.793 348.589 166.755 348.739 166.755 348.933C166.755 349.126 166.793 349.276 166.87 349.383C166.95 349.489 167.056 349.543 167.19 349.543ZM169.48 351.543C169.316 351.543 169.171 351.503 169.045 351.423C168.918 351.343 168.82 351.231 168.75 351.088C168.68 350.944 168.645 350.776 168.645 350.583C168.645 350.389 168.68 350.221 168.75 350.078C168.82 349.934 168.918 349.823 169.045 349.743C169.171 349.663 169.316 349.623 169.48 349.623C169.65 349.623 169.796 349.663 169.92 349.743C170.046 349.823 170.145 349.934 170.215 350.078C170.285 350.221 170.32 350.389 170.32 350.583C170.32 350.776 170.285 350.944 170.215 351.088C170.145 351.231 170.046 351.343 169.92 351.423C169.796 351.503 169.65 351.543 169.48 351.543ZM169.48 351.193C169.613 351.193 169.718 351.139 169.795 351.033C169.871 350.926 169.91 350.776 169.91 350.583C169.91 350.389 169.871 350.239 169.795 350.133C169.718 350.026 169.613 349.973 169.48 349.973C169.35 349.973 169.245 350.026 169.165 350.133C169.088 350.236 169.05 350.386 169.05 350.583C169.05 350.779 169.088 350.931 169.165 351.038C169.245 351.141 169.35 351.193 169.48 351.193Z" fill="white"/>
<path d="M93.2324 351.508V348.258L93.5174 348.553H92.4924V348.008H93.8824V351.508H93.2324ZM95.7367 351.558C95.49 351.558 95.2484 351.523 95.0117 351.453C94.7784 351.379 94.5817 351.279 94.4217 351.153L94.6967 350.648C94.8234 350.751 94.9767 350.834 95.1567 350.898C95.34 350.961 95.53 350.993 95.7267 350.993C95.9567 350.993 96.1367 350.944 96.2667 350.848C96.4 350.751 96.4667 350.621 96.4667 350.458C96.4667 350.348 96.4384 350.251 96.3817 350.168C96.3284 350.084 96.2317 350.021 96.0917 349.978C95.955 349.934 95.7667 349.913 95.5267 349.913H94.6817L94.8617 348.008H96.9167V348.553H95.1017L95.4417 348.243L95.3067 349.668L94.9667 349.363H95.6717C96.0184 349.363 96.2967 349.409 96.5067 349.503C96.72 349.593 96.875 349.719 96.9717 349.883C97.0717 350.043 97.1217 350.226 97.1217 350.433C97.1217 350.636 97.0717 350.823 96.9717 350.993C96.8717 351.163 96.7184 351.299 96.5117 351.403C96.3084 351.506 96.05 351.558 95.7367 351.558ZM97.9378 351.508L100.328 348.008H100.818L98.4278 351.508H97.9378ZM98.2278 349.893C98.0644 349.893 97.9194 349.853 97.7928 349.773C97.6661 349.693 97.5678 349.581 97.4978 349.438C97.4278 349.294 97.3928 349.126 97.3928 348.933C97.3928 348.739 97.4278 348.571 97.4978 348.428C97.5678 348.284 97.6661 348.173 97.7928 348.093C97.9194 348.013 98.0644 347.973 98.2278 347.973C98.3978 347.973 98.5444 348.013 98.6678 348.093C98.7944 348.173 98.8928 348.284 98.9628 348.428C99.0328 348.571 99.0678 348.739 99.0678 348.933C99.0678 349.126 99.0328 349.294 98.9628 349.438C98.8928 349.581 98.7944 349.693 98.6678 349.773C98.5444 349.853 98.3978 349.893 98.2278 349.893ZM98.2328 349.543C98.3661 349.543 98.4694 349.491 98.5428 349.388C98.6194 349.281 98.6578 349.129 98.6578 348.933C98.6578 348.736 98.6194 348.586 98.5428 348.483C98.4694 348.376 98.3661 348.323 98.2328 348.323C98.0994 348.323 97.9928 348.376 97.9128 348.483C97.8361 348.589 97.7978 348.739 97.7978 348.933C97.7978 349.126 97.8361 349.276 97.9128 349.383C97.9928 349.489 98.0994 349.543 98.2328 349.543ZM100.523 351.543C100.359 351.543 100.214 351.503 100.088 351.423C99.9611 351.343 99.8628 351.231 99.7928 351.088C99.7228 350.944 99.6878 350.776 99.6878 350.583C99.6878 350.389 99.7228 350.221 99.7928 350.078C99.8628 349.934 99.9611 349.823 100.088 349.743C100.214 349.663 100.359 349.623 100.523 349.623C100.693 349.623 100.839 349.663 100.963 349.743C101.089 349.823 101.188 349.934 101.258 350.078C101.328 350.221 101.363 350.389 101.363 350.583C101.363 350.776 101.328 350.944 101.258 351.088C101.188 351.231 101.089 351.343 100.963 351.423C100.839 351.503 100.693 351.543 100.523 351.543ZM100.523 351.193C100.656 351.193 100.761 351.139 100.838 351.033C100.914 350.926 100.953 350.776 100.953 350.583C100.953 350.389 100.914 350.239 100.838 350.133C100.761 350.026 100.656 349.973 100.523 349.973C100.393 349.973 100.288 350.026 100.208 350.133C100.131 350.236 100.093 350.386 100.093 350.583C100.093 350.779 100.131 350.931 100.208 351.038C100.288 351.141 100.393 351.193 100.523 351.193Z" fill="white"/>
</svg>
