<svg width="500" height="300" viewBox="0 0 500 300" fill="none" xmlns="http://www.w3.org/2000/svg">
<g clip-path="url(#clip0_41_23523)">
<path d="M203.432 60.8692C191.406 60.7243 179.472 64.1399 168.935 71.9376C140.834 92.7315 136.119 134.632 106.697 155.26C68.3888 173.68 43.7547 219.49 51.3627 262.369H462.698C457.124 248.478 450.788 233.219 451.275 213.794C451.908 188.579 451.287 173.963 435.19 145.953C419.092 117.942 383.586 100.153 347.154 107.702C313.216 113.048 281.542 113.458 258.302 87.4812C243.776 71.2476 223.476 61.1112 203.432 60.8692Z" fill="#8EB9FF"/>
<path d="M42.3847 208.209C42.1904 208.202 41.9983 208.24 41.8153 208.318H41.8159C41.6938 208.371 41.5758 208.441 41.4637 208.528C40.9808 209.013 40.6571 209.61 40.4037 210.243C40.0382 211.202 39.7596 212.188 39.6242 213.208C39.4524 214.508 39.3796 215.819 39.5541 217.123C39.7525 218.48 40.0703 219.816 40.6081 221.082C40.9907 221.988 41.4028 222.883 41.9204 223.721C42.1257 224.049 42.3358 224.374 42.5708 224.681C42.7065 224.849 42.8491 224.957 42.9853 225.017C43.7554 227.336 44.6024 229.63 45.6757 231.83C46.4089 233.324 46.6958 233.952 47.5113 235.43C48.136 236.562 48.8017 237.671 49.5079 238.752C48.8357 238.309 48.1557 237.876 47.4752 237.445C46.4688 236.797 45.422 236.223 44.3169 235.763C43.4116 235.401 42.4608 235.29 41.4955 235.359C40.6751 235.465 40.1334 235.72 39.5385 236.285C39.114 236.758 38.9314 237.335 38.8749 237.955C38.8361 238.519 39.0195 239.022 39.3118 239.493C39.615 239.942 40.051 240.248 40.5197 240.501C41.0533 240.756 41.6315 240.888 42.2091 240.998C42.7982 241.103 43.3943 241.16 43.9901 241.209C44.6241 241.253 45.2542 241.337 45.8847 241.415C46.5793 241.496 47.2739 241.578 47.9699 241.646C48.4768 241.697 48.9854 241.726 49.4941 241.752C49.8069 241.773 50.1205 241.783 50.4329 241.81C50.6371 241.828 50.8399 241.858 51.0427 241.887C51.1553 241.902 51.2685 241.914 51.3809 241.931C51.3869 241.931 51.4215 241.938 51.4437 241.941C51.5824 241.977 51.7075 241.989 51.8185 241.984C52.153 242.41 52.495 242.83 52.8465 243.243C53.4207 243.885 53.9764 244.545 54.5691 245.17C56.2166 246.907 57.9926 248.521 59.8687 250.009C58.8672 249.988 57.8726 250.121 56.8887 250.314C55.5326 250.601 54.2257 251.059 52.9759 251.654C52.0415 252.118 51.3188 252.671 50.6688 253.482C50.2951 254.016 50.0888 254.654 50.2721 255.3C50.303 255.408 50.355 255.509 50.3963 255.613C50.7536 256.231 51.2833 256.496 51.9507 256.663C52.6 256.797 53.2482 256.702 53.8821 256.544C54.5872 256.341 55.2432 256.004 55.8934 255.67C56.6085 255.294 57.3228 254.916 58.0406 254.544C58.6339 254.24 59.2333 253.947 59.8357 253.661C60.2339 253.467 60.6417 253.294 61.0526 253.129C61.3145 253.022 61.5793 252.923 61.8473 252.833C61.988 252.786 62.1302 252.743 62.2745 252.708C62.3731 252.685 62.4732 252.668 62.5736 252.654C62.6445 252.646 62.7144 252.633 62.7853 252.625C62.8313 252.618 62.8777 252.62 62.924 252.62C62.9792 252.62 63.0341 252.615 63.0892 252.618C63.1171 252.62 63.1033 252.619 63.1311 252.621C63.2451 252.63 63.3476 252.625 63.4397 252.61C63.7557 252.822 64.0727 253.032 64.3927 253.237C65.0612 253.632 65.7216 254.04 66.3981 254.421C68.9552 255.86 71.6316 257.109 74.436 257.984C74.8294 258.095 75.2199 258.217 75.6162 258.317C77.1262 258.699 78.6828 258.906 80.2387 258.735C80.944 258.633 81.6531 258.51 82.2891 258.17C83.2701 257.661 82.7551 256.67 81.7743 257.18C81.2495 257.458 80.6627 257.549 80.082 257.629C78.6598 257.78 77.2389 257.58 75.8606 257.228C75.4842 257.132 75.1135 257.016 74.7399 256.91C73.9047 256.648 73.081 256.352 72.269 256.027C72.2686 255.954 72.2624 255.877 72.2475 255.793C72.2422 255.769 72.2366 255.744 72.2312 255.72C72.2304 255.717 72.2288 255.714 72.2281 255.71C72.2164 255.671 72.205 255.632 72.1934 255.593C72.1642 255.494 72.1352 255.394 72.1075 255.295C72.0611 255.134 72.0139 254.974 71.9633 254.814C71.9071 254.636 71.8492 254.457 71.8 254.277C71.7261 254.006 71.6546 253.733 71.6025 253.457C71.5234 253.049 71.4509 252.639 71.4002 252.226C71.3192 251.64 71.2519 251.052 71.1721 250.465C71.0582 249.693 70.9232 248.924 70.7856 248.155C70.6229 247.256 70.4691 246.353 70.2388 245.467C69.9783 244.561 69.656 243.669 69.0784 242.911C68.9771 242.792 68.8848 242.666 68.7747 242.556C68.3131 242.096 67.7109 241.861 67.0656 241.831C66.9497 241.837 66.8331 241.834 66.7183 241.85C66.1306 241.931 65.6515 242.265 65.2983 242.73C64.8453 243.441 64.6451 244.167 64.6151 245.013C64.6341 246.201 64.8391 247.371 65.1567 248.515C65.5188 249.758 65.9351 250.987 66.5405 252.135C66.8193 252.671 67.1063 253.204 67.4288 253.714C67.2605 253.621 67.0915 253.53 66.9243 253.436C66.2619 253.063 65.6152 252.663 64.9607 252.276C62.4386 250.655 60.0428 248.83 57.8294 246.805C57.8342 246.741 57.8349 246.673 57.8298 246.601C57.8225 246.537 57.814 246.473 57.8018 246.41C57.7932 246.306 57.7939 246.202 57.7911 246.097C57.791 245.921 57.7998 245.745 57.8105 245.569C57.8232 245.296 57.8423 245.022 57.8587 244.749C57.8847 244.329 57.9221 243.911 57.961 243.493C58.0165 242.927 58.0971 242.364 58.1785 241.801C58.272 241.164 58.374 240.528 58.4485 239.888C58.5347 239.173 58.6353 238.46 58.6896 237.741C58.7236 236.979 58.7011 236.215 58.4789 235.478C58.4331 235.356 58.3965 235.229 58.3417 235.11C58.1115 234.611 57.702 234.242 57.2087 234.014C57.1042 233.979 57.002 233.934 56.8947 233.908C56.4079 233.792 55.9101 233.905 55.4702 234.121C54.7992 234.523 54.5206 234.933 54.2543 235.665C53.999 236.542 53.9505 237.432 54.012 238.343C54.1115 239.483 54.2773 240.616 54.5036 241.738C54.6689 242.523 54.8539 243.303 55.075 244.073C54.6016 243.556 54.1461 243.022 53.679 242.499C51.6802 240.148 49.9675 237.574 48.4794 234.874C48.3706 234.676 48.29 234.523 48.1981 234.353C48.2337 234.3 48.268 234.242 48.2996 234.176C48.3085 234.158 48.3039 234.168 48.3137 234.148C48.3436 234.086 48.3736 234.024 48.4039 233.962C48.4814 233.804 48.5618 233.647 48.6374 233.488C48.7615 233.221 48.8871 232.955 49.0033 232.684C49.1791 232.285 49.3456 231.883 49.5126 231.48C49.7412 230.92 49.9632 230.357 50.1588 229.785C50.4019 229.083 50.6385 228.378 50.8416 227.664C51.0716 226.833 51.282 225.996 51.4434 225.149C51.6086 224.246 51.7529 223.333 51.6625 222.412C51.5517 221.574 51.3651 220.801 50.5973 220.327C50.4971 220.281 50.401 220.225 50.2966 220.19C49.7441 220.003 49.2285 220.164 48.7581 220.47C48.1344 220.919 47.7023 221.447 47.375 222.147C46.9703 223.058 46.6716 224.011 46.4956 224.995C46.2843 226.187 46.1447 227.39 46.1266 228.602C46.1182 229.114 46.1102 229.628 46.1227 230.141C45.1546 227.969 44.3765 225.719 43.6496 223.456C43.622 223.365 43.5927 223.273 43.5645 223.182C43.5684 223.147 43.5722 223.112 43.5762 223.076C43.599 222.877 43.6222 222.677 43.653 222.479C43.7088 222.17 43.7725 221.862 43.8235 221.551C43.8953 221.152 43.963 220.753 44.0235 220.352C44.0946 219.862 44.1577 219.371 44.2049 218.879C44.2782 218.161 44.3479 217.444 44.4149 216.726C44.5064 215.735 44.5967 214.743 44.6407 213.748C44.6661 212.723 44.6703 211.685 44.415 210.684C44.1835 209.895 43.8901 209.103 43.2494 208.551C43.1557 208.489 43.0675 208.418 42.9682 208.366C42.7757 208.266 42.579 208.215 42.3847 208.208V208.209ZM49.3499 228.695C49.3425 228.718 49.3355 228.74 49.3281 228.762C49.3334 228.74 49.3383 228.719 49.3437 228.697C49.3458 228.697 49.3478 228.696 49.3499 228.695ZM67.0324 250.553C67.0352 250.556 67.038 250.559 67.0406 250.562C67.042 250.57 67.044 250.578 67.0456 250.586C67.0412 250.575 67.0368 250.564 67.0324 250.553ZM61.7249 251.455C61.7489 251.46 61.7724 251.465 61.7954 251.468C61.8675 251.52 61.9405 251.571 62.0129 251.623C62.0121 251.623 62.0113 251.623 62.0105 251.623C61.9376 251.641 61.8651 251.66 61.7929 251.681C61.7705 251.605 61.7479 251.53 61.7249 251.455" fill="#304971"/>
<path d="M46.6638 165.453C46.0933 165.473 45.6741 165.867 45.3301 166.275C44.7853 166.979 44.3225 167.742 43.9031 168.526C43.0835 170.106 42.3675 171.738 41.8568 173.446C41.6092 174.295 41.4472 174.794 41.2606 175.668C40.9098 177.31 40.7701 178.992 40.8127 180.669C40.9604 182.947 41.271 185.225 42.2381 187.318C42.4867 187.809 42.7487 188.292 43.0424 188.756C43.1877 190.954 43.456 193.145 43.7515 195.327C44.1913 198.086 44.3745 199.504 45.0122 202.297C46.2572 207.752 48.0719 212.946 50.4735 217.967C48.9286 216.671 47.2826 215.495 45.6406 214.328C43.2354 212.579 40.616 211.182 37.8713 210.053C36.256 209.406 34.5492 208.99 32.8013 209.003C32.5333 209.006 32.2661 209.032 31.9985 209.046C30.9316 209.179 29.7941 209.519 29.0626 210.365C28.9282 210.521 28.8277 210.702 28.7103 210.87C28.6365 211.071 28.5359 211.263 28.4893 211.471C28.2163 212.686 28.8513 213.781 29.4699 214.767C30.3704 216.094 31.5228 217.215 32.7115 218.28C34.1652 219.558 35.7542 220.663 37.3731 221.719C38.8875 222.776 40.5569 223.53 42.2916 224.14C43.6124 224.583 44.9683 224.908 46.3351 225.171C47.3797 225.357 48.4357 225.468 49.4926 225.553C50.2575 225.62 51.0249 225.633 51.7916 225.597C52.205 225.575 52.6162 225.527 53.0216 225.443C53.235 225.394 53.4454 225.334 53.6525 225.263C53.7343 225.237 53.814 225.204 53.8967 225.181C53.9797 225.161 54.0594 225.13 54.1389 225.1C54.1584 225.092 54.1783 225.085 54.1977 225.077C54.2162 225.07 54.2327 225.063 54.2506 225.055C55.0369 226.43 55.871 227.775 57.2415 229.8C57.9576 230.859 58.6975 231.901 59.4577 232.928C59.4876 233.233 59.6685 233.466 59.9347 233.564C61.4773 235.613 63.0999 237.601 64.7805 239.539C63.0451 239.083 61.2666 238.809 59.4891 238.573C57.1692 238.303 54.8329 238.222 52.4992 238.196C50.5425 238.174 48.6771 238.335 46.8023 238.905C45.7795 239.314 44.7104 239.942 44.3677 241.068C44.3053 241.273 44.2993 241.491 44.2652 241.703C44.3092 241.941 44.3234 242.188 44.3972 242.419C44.7473 243.518 45.8599 244.103 46.8129 244.583C48.2456 245.213 49.7758 245.546 51.3233 245.728C52.8939 245.855 54.4719 245.826 56.0446 245.762C57.4338 245.695 58.8181 245.557 60.2016 245.418C61.3188 245.31 62.4309 245.159 63.5395 244.984C64.3862 244.845 65.2232 244.655 66.052 244.436C66.4864 244.318 66.9162 244.185 67.3487 244.061C67.5234 244.013 67.6957 243.957 67.8694 243.906C67.9029 243.895 67.9366 243.883 67.9701 243.872C68.166 243.804 68.3304 243.72 68.4686 243.628C69.105 244.309 69.746 244.985 70.3924 245.655C74.8481 250.07 79.3435 254.512 84.6577 257.906C85.446 258.426 86.2328 258.948 87.0224 259.466C87.7644 259.952 88.5019 260.484 89.338 260.798C91.1235 261.27 91.6007 259.468 89.8152 258.995C88.3919 258.192 87.0489 257.249 85.6851 256.35C80.4752 253.021 76.0735 248.66 71.7059 244.33C68.1543 240.647 64.7364 236.809 61.6398 232.729C61.6753 232.691 61.7112 232.653 61.7465 232.614C62.169 232.146 62.5564 231.647 62.9114 231.125C63.7063 229.962 64.454 228.764 65.1124 227.518C65.9898 225.738 66.7425 223.896 67.1317 221.942C67.6449 219.489 68.0463 217.01 68.202 214.506C68.3189 212.288 68.4327 210.032 67.7836 207.877C67.3763 206.729 66.8584 205.391 65.6397 204.878C65.4485 204.798 65.2347 204.787 65.0323 204.742C64.8356 204.752 64.6364 204.739 64.4422 204.772C63.5024 204.929 62.7369 205.627 62.0623 206.242C61.6325 206.712 61.5108 206.814 61.1435 207.348C60.5394 208.227 60.1143 209.214 59.7451 210.209C59.077 212.186 58.5706 214.211 58.147 216.254C57.6911 218.582 57.3222 220.933 57.3678 223.313C57.3895 224.538 57.4565 225.762 57.6093 226.976C55.8648 224.277 55.1156 222.76 53.2199 219.3C52.044 217.027 50.9984 214.727 50.0753 212.385C50.0931 212.378 50.1111 212.371 50.1289 212.363C50.3896 212.249 50.6329 212.104 50.8447 211.913C51.182 211.623 51.4893 211.303 51.7568 210.946C52.1816 210.391 52.5613 209.804 52.8748 209.178C53.3458 208.247 53.7733 207.294 54.1264 206.312C54.5976 204.995 54.9934 203.653 55.3049 202.289C55.6879 200.547 55.9806 198.786 56.1607 197.01C56.305 195.261 56.3947 193.488 56.0949 191.749C55.8167 190.677 55.4165 189.66 54.4614 189.015C54.2781 188.949 54.1024 188.856 53.9115 188.819C53.0931 188.66 52.3487 189.14 51.7834 189.669C50.8883 190.645 50.2617 191.789 49.826 193.04C49.1323 194.966 48.578 196.935 48.1142 198.929C47.7679 200.381 47.4092 201.838 47.1738 203.314C47.0519 202.824 46.933 202.333 46.8204 201.838C46.2013 199.116 46.0217 197.724 45.5939 195.034C45.4321 193.815 45.2755 192.593 45.1435 191.37C45.2477 191.224 45.3412 191.045 45.4173 190.83C45.4652 190.693 45.5209 190.558 45.5621 190.418C45.6771 190.056 45.7906 189.693 45.9284 189.339C46.1878 188.635 46.4421 187.929 46.6736 187.216C47.0826 186.002 47.503 184.793 47.8859 183.571C48.4579 181.754 49.023 179.925 49.2975 178.034C49.5708 176.029 49.7538 174.008 49.6949 171.982C49.6078 170.512 49.422 169.034 48.853 167.662C48.4687 166.816 48.039 165.93 47.1473 165.529C46.9862 165.504 46.8268 165.446 46.6638 165.453ZM49.9517 200.283C49.9572 200.306 49.9637 200.329 49.9699 200.352C49.9492 200.445 49.9283 200.538 49.908 200.631C49.8703 200.562 49.8753 200.454 49.9517 200.283ZM65.3173 206.923C65.3245 206.933 65.3316 206.943 65.3386 206.952C65.3159 206.956 65.2931 206.959 65.2692 206.962C65.2851 206.948 65.3011 206.935 65.3173 206.923ZM65.2108 207.753C65.2165 207.792 65.2225 207.83 65.228 207.869C65.2208 207.867 65.2139 207.865 65.2068 207.863C65.2084 207.826 65.2103 207.79 65.2108 207.753Z" fill="#3D87FF"/>
<path d="M74.833 172.343C74.6301 172.349 74.4294 172.415 74.2006 172.552C73.8115 172.823 73.492 173.17 73.2277 173.564C72.8053 174.198 72.443 174.871 72.1445 175.572C71.7432 176.574 71.3882 177.602 71.3473 178.692C71.322 179.735 71.3819 180.78 71.7219 181.775C71.8713 182.185 72.027 182.6 72.3055 182.942C72.4062 183.069 72.5125 183.149 72.6138 183.191C72.3684 184.267 72.207 185.361 72.0463 186.453C71.544 189.76 71.3325 193.094 71.2229 196.433C71.2024 197.329 71.1966 198.224 71.1982 199.12C71.0531 198.88 70.9045 198.642 70.7546 198.405C70.0939 197.398 69.4805 196.343 68.6488 195.462C68.4885 195.292 68.3129 195.137 68.145 194.975C67.4865 194.442 66.7582 193.963 65.9432 193.705C65.4457 193.548 65.2837 193.553 64.7724 193.494C64.1086 193.465 63.437 193.514 62.8144 193.763C62.4567 193.906 62.3656 193.985 62.0452 194.188C61.5116 194.582 61.0823 195.118 61.0146 195.799C61.0021 195.925 61.0143 196.052 61.0142 196.178C61.1417 197.06 61.5462 197.568 62.1935 198.141C62.8929 198.696 63.6889 199.109 64.482 199.512C65.2525 199.906 66.0532 200.235 66.855 200.559C67.4614 200.796 68.0682 201.031 68.6738 201.27C69.0774 201.43 69.4894 201.567 69.8951 201.721C70.1039 201.805 70.313 201.888 70.5079 202.001C70.6299 202.087 70.7465 202.18 70.8668 202.268C70.949 202.329 71.03 202.391 71.1107 202.454C71.1121 202.455 71.1116 202.455 71.1128 202.456C71.1515 202.52 71.2014 202.578 71.2551 202.631C71.3335 205.223 71.4845 207.813 71.6866 210.399C71.8017 211.567 71.9349 212.736 72.0915 213.9C72.0121 213.825 71.9326 213.749 71.8541 213.674C70.7118 212.614 69.3787 211.798 68.0166 211.055C66.6172 210.425 65.0782 209.901 63.5413 209.753C63.2882 209.729 63.0332 209.731 62.7792 209.72C61.7975 209.756 60.7977 209.99 60.0196 210.623C59.9078 210.713 59.8111 210.821 59.7069 210.921C59.2673 211.435 59.0566 212.097 59.236 212.765C59.2688 212.887 59.3258 213.001 59.3706 213.119C59.8236 213.902 60.4319 214.262 61.2432 214.598C62.0506 214.912 62.9139 214.986 63.7708 215.024C64.5475 215.059 65.3245 215.078 66.1019 215.082C66.8513 215.082 67.5997 215.127 68.3483 215.155C68.8416 215.163 69.3321 215.201 69.8205 215.268C70.141 215.32 70.461 215.385 70.7691 215.488C70.9339 215.548 71.0865 215.634 71.2439 215.709C71.3973 215.785 71.5626 215.828 71.7263 215.874C71.8371 215.905 71.9471 215.939 72.0575 215.971C72.1415 215.994 72.2263 216.013 72.3097 216.038C72.346 216.048 72.3815 216.062 72.4162 216.077C72.6352 217.414 72.8905 218.745 73.1981 220.066C73.67 222.091 73.8875 222.693 74.4883 224.674C74.7861 225.582 75.1063 226.483 75.4445 227.377C75.3028 227.281 75.1563 227.193 75.0132 227.1C73.71 226.407 72.2555 226.069 70.7896 225.962C70.4341 225.936 70.0773 225.936 69.7211 225.922C68.5296 225.95 67.3052 226.005 66.158 226.365C65.5122 226.567 65.3972 226.667 64.8114 226.987C63.9285 227.591 63.1102 228.368 62.6703 229.363C62.5982 229.526 62.5511 229.699 62.4915 229.867C62.3565 230.547 62.4367 231.238 62.8734 231.8C63.1231 232.121 63.2934 232.209 63.6165 232.441C64.1364 232.749 64.7039 232.97 65.3027 233.062C65.6772 233.12 65.8453 233.112 66.223 233.121C67.2982 233.117 68.3453 232.872 69.3801 232.607C70.4291 232.329 71.4836 232.073 72.5229 231.759C73.2066 231.537 73.8821 231.291 74.5754 231.1C74.9034 231.015 75.2357 230.947 75.5719 230.904C75.7671 230.884 75.9634 230.883 76.1594 230.883C76.3092 230.881 76.459 230.886 76.6085 230.896C76.6938 230.908 76.7794 230.921 76.8631 230.942C76.8881 230.95 76.9086 230.955 76.926 230.959C77.2095 231.589 77.5029 232.214 77.8074 232.834C78.5448 234.336 78.8436 234.844 79.6377 236.294C81.2027 239.11 83.0104 241.776 84.9469 244.346C86.1721 245.954 87.5223 247.457 88.9209 248.914C89.5368 249.549 90.1612 250.175 90.795 250.792C91.0373 251.019 91.2673 251.26 91.5279 251.466C91.7829 251.639 92.067 251.764 92.3423 251.901C92.546 252 92.7453 252.107 92.9377 252.227C93.0848 252.317 93.2243 252.418 93.3647 252.518C93.4626 252.587 93.5479 252.673 93.6373 252.752C93.6817 252.792 93.7261 252.831 93.7707 252.871C94.2348 253.793 95.2036 253.343 94.7689 252.344C94.714 252.262 94.6591 252.181 94.6042 252.099C94.533 252.036 94.462 251.973 94.391 251.91C94.2705 251.802 94.1541 251.689 94.0204 251.597C93.8608 251.483 93.7018 251.369 93.5345 251.267C93.3119 251.129 93.0825 251.004 92.8473 250.89C92.6363 250.784 92.4221 250.685 92.2169 250.569C91.9832 250.402 91.8035 250.165 91.584 249.982C90.9594 249.374 90.344 248.757 89.7367 248.131C88.3692 246.707 87.0486 245.237 85.8503 243.666C83.946 241.14 82.1686 238.519 80.6294 235.751C79.8486 234.326 79.5554 233.828 78.8301 232.352C77.5581 229.763 76.4702 227.086 75.5706 224.346C75.5141 224.16 75.4745 224.031 75.4243 223.868C75.4383 223.808 75.4468 223.742 75.4488 223.669H75.4487C75.4485 223.572 75.4451 223.476 75.44 223.379C75.4937 223.279 75.5185 223.141 75.4933 222.968C75.5242 222.895 75.5589 222.825 75.6001 222.757C75.6835 222.624 75.7849 222.504 75.8973 222.394C76.1652 222.12 76.4441 221.853 76.7697 221.647C77.2658 221.333 77.7707 221.032 78.2863 220.751C79.1772 220.285 80.0835 219.845 80.9453 219.326C82.0767 218.597 83.1572 217.78 84.0157 216.733C84.7308 215.788 85.3439 214.802 85.5494 213.614C85.5716 213.23 85.6319 213.005 85.4811 212.641C85.2704 212.133 84.7816 211.966 84.2827 211.889C84.1463 211.882 84.0102 211.865 83.8737 211.867C83.1185 211.874 82.3793 212.091 81.7063 212.421C81.2649 212.678 81.1928 212.706 80.7603 213.021C79.9242 213.631 79.177 214.35 78.4378 215.071C77.1555 216.35 75.8841 217.682 75.1191 219.349C75.034 219.563 74.9373 219.772 74.8636 219.99C74.7424 220.347 74.6612 220.716 74.6121 221.09C74.5185 220.728 74.4194 220.324 74.3051 219.834C73.5745 216.702 73.1298 213.508 72.814 210.31C72.7955 210.073 72.7793 209.835 72.7614 209.597C72.7809 209.559 72.7987 209.516 72.8142 209.47C72.8265 209.457 72.8385 209.444 72.8435 209.441C72.9067 209.378 72.9724 209.318 73.0364 209.256C73.1171 209.18 73.2015 209.109 73.2853 209.036C73.3647 208.983 73.4387 208.924 73.5166 208.869C73.7128 208.738 73.914 208.616 74.1194 208.501C74.4779 208.289 74.8363 208.077 75.2107 207.894C75.859 207.557 76.5083 207.222 77.1432 206.861C78.0824 206.292 78.9965 205.671 79.7555 204.87C80.4592 204.093 81.1032 203.244 81.4345 202.237C81.4705 202.089 81.5176 201.943 81.5426 201.793C81.6374 201.223 81.5367 200.637 81.2053 200.161C81.1351 200.086 81.0726 200.003 80.9948 199.936C80.5242 199.531 79.9039 199.51 79.3297 199.662C78.9735 199.78 78.8816 199.799 78.531 199.961C77.7579 200.318 77.0602 200.811 76.3959 201.339C75.862 201.792 75.7003 201.91 75.2073 202.406C74.5637 203.052 73.9905 203.768 73.4698 204.516C73.1301 205.049 72.8208 205.6 72.5381 206.165C72.3607 202.937 72.2796 199.704 72.3533 196.47C72.3848 195.506 72.4264 194.544 72.4798 193.581C72.5138 193.56 72.5483 193.536 72.5832 193.507C72.6346 193.481 72.6888 193.46 72.742 193.437C72.9018 193.373 73.0604 193.307 73.2216 193.248C73.4149 193.177 73.6086 193.108 73.8028 193.041C74.0163 192.966 74.2281 192.885 74.4359 192.795C74.7889 192.64 75.1351 192.47 75.4759 192.29C76.0147 192.005 76.5508 191.712 77.0581 191.373C77.7028 190.932 78.3286 190.462 78.9019 189.93C79.4552 189.383 79.9469 188.777 80.266 188.06C80.5261 187.38 80.6439 186.798 80.4891 186.073C80.3289 185.558 80.1464 185.304 79.6951 185.007C79.1725 184.737 78.7793 184.713 78.2364 184.967C77.4831 185.35 76.7974 185.85 76.1416 186.381C75.7875 186.685 75.6576 186.783 75.3326 187.118C74.8425 187.624 74.4193 188.191 74.014 188.765C73.505 189.529 73.059 190.326 72.6589 191.15C72.6544 191.153 72.6499 191.156 72.6453 191.16C72.7701 189.641 72.9358 188.126 73.1651 186.617C73.2825 185.818 73.4032 185.018 73.5557 184.225C73.5937 184.204 73.6326 184.179 73.6721 184.15C73.702 184.122 73.7319 184.095 73.7619 184.068C73.8218 183.995 73.882 183.921 73.9421 183.848C74.087 183.672 74.2287 183.493 74.3654 183.31C74.5862 183.009 74.7987 182.701 74.987 182.378C75.2118 181.988 75.4205 181.589 75.5688 181.164C75.7472 180.672 75.91 180.175 76.0394 179.669C76.201 179.038 76.3549 178.405 76.4652 177.763C76.5845 177.065 76.7027 176.359 76.6705 175.647C76.6379 174.986 76.5763 174.323 76.3605 173.693C76.1756 173.191 75.9562 172.781 75.4798 172.503C75.2413 172.394 75.036 172.338 74.833 172.343V172.343ZM65.8271 199.263C65.8379 199.266 65.8526 199.269 65.8682 199.273C65.8667 199.276 65.8655 199.278 65.8642 199.28C65.8518 199.274 65.8395 199.269 65.8271 199.263V199.263ZM81.664 213.385C81.6551 213.392 81.6463 213.399 81.6374 213.407C81.6354 213.407 81.6333 213.407 81.6312 213.407C81.6422 213.4 81.653 213.392 81.664 213.385V213.385ZM70.4577 213.541C70.4684 213.549 70.4791 213.558 70.4898 213.567C70.4819 213.564 70.474 213.561 70.466 213.558C70.4634 213.552 70.4605 213.547 70.4577 213.541Z" fill="#639EFF"/>
<path d="M352.8 167.622C351.139 167.932 350.196 168.665 349.342 170.13C348.362 171.943 347.55 173.848 347.016 175.842C346.372 178.497 345.957 181.203 346.248 183.942C346.425 186.312 346.631 188.692 347.238 190.998C347.432 191.761 347.665 192.521 347.767 193.303C347.842 194.047 348.101 194.567 348.433 194.875C348.421 195.017 348.411 195.159 348.399 195.3C348.066 198.862 347.69 202.428 346.994 205.94C346.252 209.344 345.369 212.718 344.303 216.035C344.159 216.366 344.023 216.701 343.902 217.042C343.833 217.26 343.789 217.465 343.764 217.657C343.418 218.67 343.056 219.678 342.671 220.677C342.308 221.551 341.962 222.433 341.581 223.299C340.846 224.967 340.048 226.607 339.202 228.222C339.31 226.528 339.347 224.832 339.302 223.133C339.179 220.556 338.526 218.078 337.552 215.702C336.722 213.887 335.68 212.561 333.977 211.522C332.661 210.858 331.237 210.976 330.178 212.058C329.988 212.253 329.844 212.488 329.677 212.703C328.766 214.177 328.659 215.869 328.639 217.554C328.625 219.236 328.936 220.884 329.327 222.512C329.661 223.893 330.114 225.241 330.588 226.58C330.951 227.614 331.365 228.629 331.797 229.635C332.092 230.306 332.399 230.97 332.72 231.629C332.946 232.068 333.152 232.517 333.37 232.96C333.523 233.263 333.687 233.56 333.829 233.868C333.913 234.066 334.02 234.251 334.134 234.434C334.059 234.294 334.18 234.635 334.195 234.68C334.224 234.777 334.252 234.873 334.281 234.97C334.334 235.226 334.487 235.418 334.639 235.622C334.691 235.679 334.743 235.733 334.796 235.785C334.575 236.129 334.357 236.474 334.134 236.816C333.514 237.705 332.915 238.609 332.274 239.483C328.989 243.966 325.277 248.16 321.245 251.982C321.117 252.094 320.987 252.204 320.859 252.316C320.726 252.392 320.613 252.49 320.525 252.606C316.449 256.16 312.176 259.507 307.582 262.369H312.572C315.78 260.134 318.853 257.709 321.817 255.153C322.647 255.559 323.575 255.719 324.485 255.853C326.507 256.079 328.533 255.794 330.531 255.484C332.947 255.118 335.283 254.394 337.587 253.597C339.382 253.017 341.08 252.221 342.668 251.208C343.735 250.513 344.68 249.707 345.361 248.628C346.071 247.081 345.731 246.169 344.45 245.143C343.305 244.44 341.979 244.37 340.673 244.351C339.13 244.331 337.613 244.626 336.109 244.935C334.507 245.269 332.959 245.795 331.435 246.377C330.864 246.601 330.302 246.842 329.742 247.088C331.395 245.178 332.978 243.206 334.47 241.173C335.136 240.264 335.76 239.324 336.405 238.4C336.954 237.563 337.489 236.715 338.017 235.863C338.235 235.669 338.421 235.385 338.546 235.008C340.608 231.611 342.488 228.102 344.092 224.467C344.49 223.566 344.85 222.65 345.228 221.742C345.555 220.899 345.863 220.049 346.162 219.197C346.469 219.182 346.815 219.105 347.194 218.945C347.56 218.789 347.935 218.656 348.308 218.519C349.058 218.223 349.787 217.883 350.498 217.502C351.627 216.914 352.744 216.299 353.789 215.569C355.186 214.56 356.525 213.474 357.769 212.282C359.307 210.798 360.788 209.245 362.055 207.519C363.16 205.916 364.154 204.215 364.498 202.27C364.715 200.5 364.607 199.014 362.8 198.182C362.542 198.133 362.288 198.05 362.024 198.036C360.793 197.972 359.677 198.721 358.669 199.315C357.013 200.404 355.421 201.589 353.932 202.897C352.297 204.397 350.773 206.009 349.42 207.768C349.515 207.355 349.61 206.943 349.701 206.53C350.423 202.908 350.814 199.231 351.157 195.557C351.197 195.116 351.23 194.674 351.266 194.232C351.688 194.041 352.104 193.614 352.399 192.9C352.508 192.638 352.619 192.376 352.723 192.112C353.092 191.17 353.449 190.221 353.836 189.285C354.506 187.586 355.13 185.868 355.691 184.13C356.396 181.853 357.018 179.541 357.186 177.152C357.263 175.023 357.231 172.858 356.54 170.818C355.813 169.058 354.924 167.598 352.8 167.622ZM332.741 224.325C332.853 224.55 332.964 224.774 333.082 224.995C333.129 225.243 333.177 225.489 333.226 225.735C333.218 225.71 333.209 225.684 333.2 225.658C333.043 225.215 332.889 224.771 332.741 224.325Z" fill="#69A8FC"/>
<path d="M394.626 206.985C393.747 206.956 393.035 207.504 392.484 208.148C391.648 209.175 390.886 210.264 390.289 211.448C389.379 213.333 388.617 215.29 388.035 217.302C387.427 219.553 386.9 221.842 386.862 224.184C386.867 225.281 386.871 226.395 387.11 227.471C387.089 227.514 387.065 227.556 387.045 227.599C385.955 229.678 384.868 231.765 383.562 233.719C381.067 237.386 378.383 240.932 375.262 244.094C373.472 245.881 371.646 247.641 369.736 249.301C369.818 249.04 369.899 248.778 369.979 248.515C370.637 246.274 370.989 243.969 371.176 241.646C371.205 240.179 371.281 238.624 370.765 237.219C370.681 236.991 370.563 236.778 370.462 236.558C369.847 235.541 368.862 234.86 367.629 235.063C367.406 235.1 367.197 235.198 366.98 235.265C365.658 235.859 364.917 237.034 364.276 238.273C363.623 239.61 363.285 241.057 363.053 242.518C362.846 243.912 362.941 245.321 363.071 246.716C363.16 247.752 363.342 248.774 363.563 249.789C363.702 250.386 363.868 250.977 364.041 251.565C364.126 251.865 364.224 252.16 364.331 252.453C364.38 252.59 364.433 252.727 364.486 252.862C364.468 252.822 364.462 252.791 364.497 252.922C364.531 253.053 364.573 253.173 364.618 253.284C363.965 253.729 363.301 254.16 362.622 254.571C361.833 255.008 361.055 255.467 360.254 255.884C355.968 258.117 351.409 259.814 346.767 261.142C345.184 261.57 343.596 261.985 342.002 262.369H367.834C368.479 261.73 368.884 260.969 368.862 259.873C368.805 259.646 368.782 259.407 368.692 259.192C368.341 258.365 367.548 257.921 366.782 257.551C365.899 257.171 364.985 256.846 364.018 256.772C363.807 256.759 363.595 256.752 363.384 256.747C363.497 256.684 363.61 256.619 363.723 256.556C368.628 253.613 372.836 249.72 376.866 245.7C376.914 245.652 376.961 245.602 377.009 245.553C377.176 245.635 377.367 245.704 377.588 245.756C377.71 245.785 377.644 245.77 377.787 245.8C377.939 245.823 378.091 245.836 378.244 245.843C378.561 245.862 378.879 245.879 379.197 245.88C379.8 245.87 380.399 245.821 380.994 245.718C381.846 245.557 382.694 245.351 383.51 245.053C384.717 244.596 385.896 244.06 386.964 243.329C388.236 242.432 389.427 241.423 390.34 240.148C391.171 238.895 391.837 237.711 391.24 236.194C391.127 236.016 391.039 235.82 390.904 235.661C390.2 234.843 389.163 234.789 388.194 235.067C386.956 235.463 385.776 236.018 384.625 236.618C384.454 236.71 384.284 236.804 384.115 236.897C384.562 236.268 385.005 235.635 385.44 234.997C386.797 232.971 387.926 230.809 389.056 228.653C389.362 228.045 389.695 227.451 389.993 226.84C390.036 226.792 390.08 226.742 390.124 226.688C390.543 226.172 390.963 225.656 391.37 225.13C392.089 224.169 392.724 223.154 393.336 222.122C394.101 220.831 394.843 219.525 395.484 218.166C396.113 216.836 396.672 215.472 397.027 214.04C397.346 212.689 397.589 211.314 397.318 209.93C397.028 208.708 396.592 207.76 395.417 207.17C395.213 207.113 395.014 207.024 394.803 206.998C394.743 206.991 394.685 206.987 394.626 206.985ZM394.738 209.186C394.759 209.186 394.737 209.218 394.635 209.302C394.642 209.309 394.647 209.316 394.654 209.323C394.578 209.33 394.504 209.344 394.433 209.364C394.558 209.27 394.705 209.186 394.738 209.186ZM368.023 237.222C368.101 237.226 368.18 237.284 368.25 237.351C368.117 237.329 367.979 237.327 367.839 237.348C367.855 237.338 367.871 237.328 367.887 237.319C367.896 237.299 367.898 237.273 367.915 237.259C367.95 237.231 367.985 237.22 368.023 237.222" fill="#69A8FC"/>
<path d="M398.28 162.791C397.507 162.805 396.789 163.036 396.112 163.524C395.193 164.161 394.372 164.917 393.566 165.691C392.413 166.842 391.373 168.093 390.461 169.445C389.433 171.052 388.613 172.767 388.096 174.61C387.469 176.848 386.964 179.134 386.842 181.462C386.806 183.845 386.922 186.224 387.141 188.597C387.262 189.876 387.36 191.179 387.714 192.42C387.771 192.597 387.839 192.753 387.914 192.893C386.17 195.957 384.373 198.99 382.523 201.992C378.475 208.504 374.251 214.925 369.186 220.708C368.591 221.395 367.988 222.078 367.386 222.761C367.412 222.574 367.439 222.386 367.464 222.199C367.753 220.169 367.807 218.125 367.761 216.079C367.697 213.724 367.327 211.399 366.846 209.099C366.423 207.101 365.836 205.147 365.119 203.237C364.626 201.963 363.977 200.761 363.108 199.706C362.011 198.616 360.705 198.827 359.478 199.533C358.387 200.285 357.73 201.423 357.189 202.6C356.619 203.951 356.359 205.39 356.174 206.835C355.986 208.464 356.057 210.096 356.263 211.717C356.447 213.071 356.715 214.411 357.053 215.734C357.377 216.91 357.827 218.046 358.291 219.173C358.669 220.082 359.077 220.977 359.54 221.846C359.927 222.567 360.378 223.251 360.805 223.949C361.083 224.411 361.346 224.882 361.587 225.364C361.781 225.765 362.006 226.15 362.227 226.536C362.337 226.728 362.445 226.922 362.562 227.111C362.652 227.25 362.749 227.385 362.846 227.52C362.979 227.698 362.684 227.311 362.926 227.627C362.934 227.637 362.943 227.646 362.951 227.657C359.426 231.409 355.714 234.975 351.641 238.112C350.662 238.545 349.682 238.98 348.681 239.359C347.516 239.742 347.169 240.542 347.423 241.108C347.01 241.376 346.599 241.644 346.18 241.902C344.65 242.816 343.144 243.774 341.588 244.644C337.888 246.712 334.052 248.541 330.106 250.083C330.14 250.055 330.173 250.027 330.206 249.999C330.653 249.584 331.087 249.153 331.484 248.69C331.95 248.149 332.413 247.601 332.835 247.025C333.316 246.371 333.78 245.705 334.217 245.022C334.741 244.185 335.265 243.347 335.759 242.492C336.394 241.393 337.004 240.279 337.544 239.131C338.195 237.699 338.768 236.227 339.052 234.672C339.299 232.999 339.359 231.311 339.152 229.628C338.972 228.302 338.723 226.975 337.912 225.871C337.173 225.013 336.275 224.53 335.124 224.852C334.369 225.121 333.675 225.512 333.083 226.059C332.297 226.788 331.58 227.589 330.967 228.47C330.11 229.723 329.326 231.024 328.666 232.392C327.762 234.28 326.953 236.214 326.3 238.205C325.626 240.328 325.031 242.477 324.638 244.671C324.33 246.495 324.099 248.338 324.292 250.19C324.35 250.811 324.413 251.432 324.505 252.048C322.281 252.743 320.028 253.346 317.747 253.844C310.879 255.296 303.958 256.681 296.934 257.09C294.726 257.152 292.487 257.033 290.298 257.356C288.031 257.9 288.581 260.189 290.847 259.645C292.883 259.415 294.952 259.5 297.001 259.443C304.167 259.037 311.227 257.627 318.235 256.147C320.645 255.621 323.026 254.98 325.374 254.241C325.953 254.676 326.675 254.462 326.938 253.732C332.387 251.903 337.654 249.534 342.677 246.731C343.844 246.08 344.983 245.383 346.125 244.688C346.17 244.716 346.216 244.744 346.266 244.771C346.44 244.841 346.577 244.911 346.754 244.943C346.994 244.997 347.238 245.044 347.481 245.09C347.997 245.182 348.516 245.254 349.037 245.313C350.104 245.446 351.173 245.578 352.246 245.653C353.693 245.743 355.146 245.79 356.593 245.673C358.263 245.561 359.93 245.416 361.59 245.206C363.376 244.969 365.157 244.676 366.903 244.223C368.579 243.748 370.196 243.121 371.692 242.216C373.108 241.351 374.504 240.396 375.481 239.027C376.392 237.535 376.725 236.167 375.167 234.959C374.033 234.334 372.781 234.113 371.493 234.042C369.98 233.967 368.463 233.975 366.951 234.084C365.344 234.197 363.739 234.337 362.149 234.606C360.894 234.827 359.649 235.101 358.43 235.464C362.898 231.366 366.985 226.833 370.965 222.251C373.378 219.495 375.601 216.593 377.709 213.61C377.922 213.827 378.229 214.023 378.64 214.168C378.938 214.262 379.237 214.33 379.548 214.365C380.016 214.439 380.486 214.513 380.959 214.556C381.619 214.618 382.281 214.651 382.942 214.589C383.732 214.522 384.52 214.419 385.296 214.254C386.319 214.026 387.319 213.723 388.271 213.28C389.593 212.695 390.898 212.07 392.147 211.34C393.802 210.367 395.405 209.295 396.823 207.991C398.307 206.548 399.671 204.968 400.354 202.975C400.852 201.242 400.969 199.729 399.226 198.69C397.869 198.169 396.715 198.359 395.34 198.734C393.739 199.193 392.204 199.84 390.72 200.594C388.7 201.614 386.687 202.667 384.799 203.917C384.365 204.223 383.933 204.534 383.509 204.853C383.848 204.314 384.187 203.776 384.524 203.235C386.661 199.766 388.734 196.257 390.731 192.705C390.951 192.31 391.167 191.913 391.386 191.518C391.812 191.542 392.336 191.327 392.839 190.765C393.192 190.367 393.528 189.955 393.84 189.523C394.375 188.775 394.913 188.028 395.401 187.247C396.104 186.139 396.803 185.028 397.482 183.905C398.141 182.788 398.788 181.663 399.362 180.5C400.055 179.088 400.735 177.662 401.132 176.133C401.571 174.476 401.989 172.802 402.067 171.082C402.134 169.418 402.105 167.739 401.63 166.127C401.176 164.726 400.622 163.302 399.074 162.851C398.802 162.809 398.538 162.788 398.28 162.791ZM389.531 188.869C389.693 188.958 389.857 189.048 390.018 189.126C389.887 189.362 389.757 189.597 389.628 189.832C389.591 189.511 389.56 189.19 389.531 188.869ZM358.919 243.092C358.922 243.104 358.926 243.115 358.928 243.127C358.783 243.14 358.638 243.152 358.493 243.165C358.634 243.139 358.777 243.115 358.919 243.092Z" fill="#5A96FF"/>
<path d="M325.215 168.059C325.152 168.061 325.09 168.068 325.027 168.08C323.824 168.319 322.913 170.118 322.342 171.033C322.135 171.447 321.908 171.853 321.718 172.276C320.178 175.702 319.501 179.443 319.179 183.162C319.142 184.151 319.081 185.139 319.07 186.128C319.013 191.676 319.632 197.208 320.07 202.729C320.202 204.073 320.339 205.411 320.495 206.745C320.258 206.382 320.017 206.024 319.778 205.668C318.384 203.777 316.843 201.968 315.023 200.47C314.012 199.638 313.669 199.469 312.593 198.795C311.505 198.229 309.481 197.077 308.236 197.871C307.992 198.028 307.829 198.286 307.625 198.494C307.563 198.824 307.434 199.149 307.441 199.485C307.454 200.052 307.823 200.775 308.094 201.243C308.621 202.15 309.311 202.951 309.977 203.754C311.202 205.22 312.583 206.536 314.054 207.751C314.963 208.479 315.926 209.137 316.898 209.777C317.522 210.178 318.183 210.512 318.81 210.907C319.213 211.178 319.598 211.475 319.963 211.796C320.179 212.008 320.358 212.255 320.5 212.522C320.649 212.837 320.834 213.132 321.013 213.429C321.216 213.762 321.448 213.977 321.677 214.094C321.734 214.351 321.794 214.609 321.855 214.867C322.139 216.197 322.391 217.538 322.776 218.844C322.89 219.165 323.044 219.401 323.214 219.563C323.184 219.902 323.155 220.242 323.129 220.581C322.998 222.322 322.978 224.069 322.831 225.809C322.827 225.993 322.845 226.157 322.875 226.303C322.741 226.754 322.639 227.214 322.585 227.684C322.545 228.533 322.935 228.994 323.361 229.05C323.143 230.047 324.252 230.572 325.14 229.424C325.163 229.395 325.15 229.411 325.179 229.375C325.296 229.228 325.418 229.086 325.549 228.951C325.841 228.623 326.13 228.292 326.425 227.965C327.259 227.022 328.074 226.064 328.851 225.074C330.104 223.501 331.396 221.951 332.464 220.243C333.08 219.16 334.173 217.521 333.148 216.327C333.007 216.163 332.782 216.095 332.6 215.979C332.402 215.94 332.206 215.873 332.006 215.862C330.629 215.789 329.334 216.846 328.336 217.646C328.05 217.918 327.754 218.179 327.478 218.462C326.457 219.517 325.586 220.706 324.84 221.969C324.861 221.541 324.886 221.113 324.918 220.685C324.979 219.882 325.062 219.081 325.134 218.279C325.342 216.477 325.648 214.684 326.057 212.914C326.263 212.811 326.456 212.611 326.594 212.302C326.857 212.21 327.119 212.116 327.38 212.015C328.619 211.517 329.828 210.942 331.005 210.309C334.423 208.383 337.617 206.125 340.478 203.426C341.036 202.869 341.611 202.327 342.153 201.754C344.728 199.027 346.961 195.954 348.545 192.547C348.86 191.64 349.215 190.858 349.254 189.885C349.299 188.754 348.946 187.874 347.899 187.361C347.643 187.236 347.354 187.201 347.081 187.121C346.779 187.104 346.477 187.061 346.175 187.069C343.922 187.126 341.794 188.134 339.829 189.13C338.318 190.062 337.851 190.29 336.422 191.439C333.595 193.714 331.241 196.495 329.379 199.606C328.029 202.13 327.601 202.771 326.513 205.481C325.251 208.62 324.34 211.9 323.764 215.234C323.712 214.987 323.661 214.74 323.608 214.494C322.665 210.57 322.249 206.561 321.855 202.554C321.537 198.556 321.124 194.553 320.947 190.542C321.157 190.363 321.338 190.068 321.436 189.642C321.384 189.785 321.491 189.48 321.513 189.455C321.716 189.029 321.924 188.607 322.139 188.188C322.935 186.593 323.689 184.977 324.422 183.352C325.667 180.499 326.881 177.596 327.328 174.493C327.364 174.043 327.423 173.593 327.437 173.141C327.461 172.433 327.404 171.476 327.295 170.771C327.214 170.255 327.001 169.19 326.656 168.751C326.43 168.462 326.078 168.302 325.788 168.078C325.598 168.079 325.405 168.052 325.215 168.059" fill="#0051A4"/>
<path d="M303.314 227.906L305.207 239.563H308.543L312.247 262.369H324.607H325.461H337.82L341.524 239.563H344.861L346.754 227.906H329.626H320.441H303.314Z" fill="#3F85FF"/>
<path d="M322.585 227.906L324.478 239.563H327.815L331.519 262.369H337.82L341.524 239.563H344.861L346.754 227.906H339.714H329.626H322.585Z" fill="#0C64FF"/>
<path d="M322.035 239.268V239.858H341.524V239.268H322.035Z" fill="#14137A"/>
<path d="M465.732 232.795C465.732 240.639 462.614 248.161 457.067 253.707C451.518 259.253 443.993 262.369 436.148 262.369C428.301 262.369 420.776 259.253 415.229 253.707C409.68 248.161 406.564 240.639 406.564 232.795C406.564 224.952 409.68 217.429 415.229 211.883C420.776 206.337 428.301 203.221 436.148 203.221C443.993 203.221 451.518 206.337 457.067 211.883C462.614 217.429 465.732 224.952 465.732 232.795Z" fill="#B9D1FB"/>
<path d="M463.952 232.795C463.952 240.167 461.024 247.237 455.809 252.45C450.594 257.663 443.523 260.591 436.148 260.591C420.791 260.591 408.342 248.146 408.342 232.795C408.342 225.423 411.272 218.353 416.486 213.14C421.7 207.927 428.773 204.999 436.148 204.999C443.523 204.999 450.594 207.927 455.809 213.14C461.024 218.353 463.952 225.423 463.952 232.795Z" fill="#3065C3"/>
<path d="M439.291 211.425C437.953 211.465 436.656 211.907 435.572 212.694C432.594 214.857 431.935 219.025 434.098 222.002C435.137 223.432 436.701 224.39 438.447 224.667C440.194 224.943 441.979 224.515 443.408 223.476C444.839 222.437 445.798 220.873 446.075 219.128C446.352 217.382 445.922 215.598 444.883 214.168C443.588 212.386 441.494 211.359 439.291 211.425ZM423.086 218.408C422.42 218.418 421.76 218.528 421.126 218.734C419.445 219.28 418.05 220.471 417.248 222.046C416.444 223.62 416.301 225.449 416.847 227.13C417.984 230.63 421.744 232.545 425.246 231.408C426.927 230.862 428.322 229.671 429.126 228.096C429.928 226.521 430.073 224.693 429.526 223.012C428.622 220.231 426.011 218.365 423.086 218.408ZM451.375 224.767C449.171 224.701 447.078 225.728 445.782 227.511C444.744 228.941 444.315 230.725 444.592 232.47C444.869 234.216 445.827 235.78 447.257 236.819C448.687 237.857 450.472 238.286 452.218 238.009C453.964 237.733 455.528 236.774 456.568 235.344C457.607 233.915 458.035 232.131 457.759 230.385C457.482 228.64 456.523 227.076 455.093 226.037C454.009 225.25 452.714 224.807 451.375 224.767ZM424.794 236.068C421.113 236.068 418.128 239.051 418.128 242.731C418.128 244.498 418.83 246.193 420.08 247.443C421.331 248.692 423.026 249.395 424.794 249.395C426.561 249.395 428.257 248.692 429.507 247.443C430.758 246.193 431.46 244.498 431.46 242.731C431.46 239.051 428.475 236.068 424.794 236.068ZM442.191 239.997C439.268 239.953 436.656 241.82 435.753 244.601C434.614 248.101 436.531 251.86 440.033 252.997C443.533 254.134 447.294 252.219 448.432 248.719C449.569 245.219 447.654 241.46 444.152 240.322C443.519 240.117 442.858 240.007 442.191 239.997Z" fill="#244C93"/>
<path d="M432.528 235.424C431.829 234.464 431.542 233.267 431.728 232.095C431.913 230.924 432.557 229.874 433.517 229.176C434.477 228.479 435.676 228.191 436.847 228.377C438.019 228.563 439.07 229.206 439.768 230.166C440.465 231.125 440.752 232.323 440.567 233.495C440.381 234.666 439.737 235.716 438.777 236.414C436.778 237.866 433.98 237.423 432.528 235.424Z" fill="#ACC2EA"/>
<path d="M433.166 234.961C432.592 234.17 432.354 233.184 432.506 232.219C432.659 231.253 433.19 230.388 433.981 229.814C435.628 228.618 437.933 228.983 439.13 230.629C439.704 231.42 439.941 232.406 439.788 233.371C439.635 234.337 439.104 235.202 438.314 235.776C437.523 236.35 436.536 236.587 435.571 236.434C434.605 236.281 433.741 235.751 433.166 234.961Z" fill="#1A3669"/>
<path d="M435.69 217.519C434.746 217.551 433.807 217.67 432.886 217.875C432.822 219.347 433.249 220.798 434.098 222.002C435.137 223.432 436.701 224.39 438.448 224.667C440.194 224.943 441.979 224.515 443.408 223.476C444.359 222.786 445.109 221.857 445.585 220.783C442.771 218.57 439.269 217.415 435.69 217.519ZM427.627 220.119C427.47 220.22 427.314 220.324 427.161 220.431C423.634 222.997 421.372 226.946 420.942 231.285C422.324 231.801 423.838 231.844 425.246 231.408C426.927 230.862 428.322 229.671 429.126 228.096C429.928 226.522 430.073 224.693 429.526 223.012C429.159 221.897 428.503 220.899 427.627 220.119ZM449.335 225.065C447.913 225.464 446.663 226.325 445.782 227.511C444.744 228.941 444.315 230.725 444.592 232.47C444.869 234.216 445.828 235.78 447.257 236.819C448.211 237.51 449.331 237.936 450.501 238.054C452.073 233.768 451.645 229.003 449.335 225.065ZM424.794 236.068C423.62 236.068 422.467 236.379 421.45 236.969C421.939 238.696 422.727 240.324 423.779 241.778C425.386 243.985 427.554 245.722 430.058 246.808C430.965 245.642 431.457 244.208 431.46 242.731C431.46 239.051 428.475 236.068 424.794 236.068ZM442.191 239.997C439.268 239.953 436.656 241.82 435.753 244.601C435.39 245.719 435.33 246.914 435.579 248.063C438.999 248.192 442.364 247.169 445.133 245.159C446.035 244.504 446.862 243.752 447.6 242.918C446.77 241.694 445.558 240.781 444.152 240.322C443.519 240.117 442.858 240.007 442.191 239.997Z" fill="#162D58"/>
<path d="M255.169 65.0415V102.944H200.012V65.0415H255.169Z" fill="#1C355E"/>
<path d="M246.894 74.5091V93.4762C246.894 95.8521 244.98 97.7666 242.602 97.7666H216.589C214.211 97.7666 212.297 95.8521 212.297 93.4762V74.5091C212.297 72.1318 214.211 70.2187 216.589 70.2187H242.602C244.98 70.2187 246.894 72.1318 246.894 74.5091Z" fill="#5693FF"/>
<path d="M255.169 70.2411C253 70.4592 251.316 72.2807 251.316 74.509V93.4761C251.316 95.7044 253 97.5259 255.169 97.7439V70.2411Z" fill="#5693FF"/>
<path d="M207.875 74.5091C207.875 72.1318 205.96 70.2187 203.583 70.2187H200.012V97.7666H203.583C205.96 97.7666 207.875 95.8521 207.875 93.4762V74.5091Z" fill="#5693FF"/>
<path d="M254.019 99.584C254.019 99.2437 253.745 98.9698 253.404 98.9698H252.51C252.17 98.9698 251.896 99.2437 251.896 99.584V101.218C251.896 101.558 252.17 101.832 252.51 101.832H253.404C253.745 101.832 254.019 101.558 254.019 101.218V99.584ZM250.636 99.584C250.636 99.2437 250.362 98.9698 250.022 98.9698H249.127C248.788 98.9698 248.514 99.2437 248.514 99.584V101.218C248.514 101.558 248.788 101.832 249.127 101.832H250.022C250.362 101.832 250.636 101.558 250.636 101.218V99.584ZM247.254 99.584C247.254 99.2437 246.98 98.9698 246.64 98.9698H245.745C245.406 98.9698 245.132 99.2437 245.132 99.584V101.218C245.132 101.558 245.406 101.832 245.745 101.832H246.64C246.98 101.832 247.254 101.558 247.254 101.218V99.584ZM243.872 99.584C243.872 99.2437 243.598 98.9698 243.258 98.9698H242.363C242.022 98.9698 241.748 99.2437 241.748 99.584V101.218C241.748 101.558 242.022 101.832 242.363 101.832H243.258C243.598 101.832 243.872 101.558 243.872 101.218V99.584ZM240.49 99.584C240.49 99.2437 240.216 98.9698 239.876 98.9698H238.98C238.64 98.9698 238.366 99.2437 238.366 99.584V101.218C238.366 101.558 238.64 101.832 238.98 101.832H239.876C240.216 101.832 240.49 101.558 240.49 101.218V99.584ZM237.108 99.584C237.108 99.2437 236.834 98.9698 236.493 98.9698H235.598C235.258 98.9698 234.984 99.2437 234.984 99.584V101.218C234.984 101.558 235.258 101.832 235.598 101.832H236.493C236.834 101.832 237.108 101.558 237.108 101.218V99.584ZM233.726 99.584C233.726 99.2437 233.452 98.9698 233.111 98.9698H232.216C231.876 98.9698 231.602 99.2437 231.602 99.584V101.218C231.602 101.558 231.876 101.832 232.216 101.832H233.111C233.452 101.832 233.726 101.558 233.726 101.218V99.584ZM230.342 99.584C230.342 99.2437 230.068 98.9698 229.729 98.9698H228.834C228.494 98.9698 228.22 99.2437 228.22 99.584V101.218C228.22 101.558 228.494 101.832 228.834 101.832H229.729C230.068 101.832 230.342 101.558 230.342 101.218V99.584ZM226.96 99.584C226.96 99.2437 226.686 98.9698 226.346 98.9698H225.452C225.112 98.9698 224.838 99.2437 224.838 99.584V101.218C224.838 101.558 225.112 101.832 225.452 101.832H226.346C226.686 101.832 226.96 101.558 226.96 101.218V99.584ZM223.578 99.584C223.578 99.2437 223.304 98.9698 222.964 98.9698H222.07C221.729 98.9698 221.455 99.2437 221.455 99.584V101.218C221.455 101.558 221.729 101.832 222.07 101.832H222.964C223.304 101.832 223.578 101.558 223.578 101.218V99.584ZM220.196 99.584C220.196 99.2437 219.922 98.9698 219.581 98.9698H218.688C218.347 98.9698 218.073 99.2437 218.073 99.584V101.218C218.073 101.558 218.347 101.832 218.688 101.832H219.581C219.922 101.832 220.196 101.558 220.196 101.218V99.584ZM216.814 99.584C216.814 99.2437 216.54 98.9698 216.199 98.9698H215.306C214.965 98.9698 214.691 99.2437 214.691 99.584V101.218C214.691 101.558 214.965 101.832 215.306 101.832H216.199C216.54 101.832 216.814 101.558 216.814 101.218V99.584ZM213.432 99.584C213.432 99.2437 213.158 98.9698 212.817 98.9698H211.923C211.583 98.9698 211.309 99.2437 211.309 99.584V101.218C211.309 101.558 211.583 101.832 211.923 101.832H212.817C213.158 101.832 213.432 101.558 213.432 101.218V99.584ZM210.05 99.584C210.05 99.2437 209.776 98.9698 209.435 98.9698H208.541C208.201 98.9698 207.927 99.2437 207.927 99.584V101.218C207.927 101.558 208.201 101.832 208.541 101.832H209.435C209.776 101.832 210.05 101.558 210.05 101.218V99.584ZM206.667 99.584C206.667 99.2437 206.393 98.9698 206.053 98.9698H205.159C204.819 98.9698 204.545 99.2437 204.545 99.584V101.218C204.545 101.558 204.819 101.832 205.159 101.832H206.053C206.393 101.832 206.667 101.558 206.667 101.218V99.584ZM203.285 99.584C203.285 99.2437 203.011 98.9698 202.671 98.9698H201.776C201.437 98.9698 201.163 99.2437 201.163 99.584V101.218C201.163 101.558 201.437 101.832 201.776 101.832H202.671C203.011 101.832 203.285 101.558 203.285 101.218V99.584Z" fill="#DEEAFD"/>
<path d="M254.019 68.4011C254.019 68.7415 253.745 69.0154 253.404 69.0154H252.51C252.17 69.0154 251.896 68.7415 251.896 68.4011V66.7671C251.896 66.4268 252.17 66.1529 252.51 66.1529H253.404C253.745 66.1529 254.019 66.4268 254.019 66.7671V68.4011ZM250.636 68.4011C250.636 68.7415 250.362 69.0154 250.022 69.0154H249.127C248.788 69.0154 248.514 68.7415 248.514 68.4011V66.7671C248.514 66.4268 248.788 66.1529 249.127 66.1529H250.022C250.362 66.1529 250.636 66.4268 250.636 66.7671V68.4011ZM247.254 68.4011C247.254 68.7415 246.98 69.0154 246.64 69.0154H245.745C245.406 69.0154 245.132 68.7415 245.132 68.4011V66.7671C245.132 66.4268 245.406 66.1529 245.745 66.1529H246.64C246.98 66.1529 247.254 66.4268 247.254 66.7671V68.4011ZM243.872 68.4011C243.872 68.7415 243.598 69.0154 243.258 69.0154H242.363C242.022 69.0154 241.748 68.7415 241.748 68.4011V66.7671C241.748 66.4268 242.022 66.1529 242.363 66.1529H243.258C243.598 66.1529 243.872 66.4268 243.872 66.7671V68.4011ZM240.49 68.4011C240.49 68.7415 240.216 69.0154 239.876 69.0154H238.98C238.64 69.0154 238.366 68.7415 238.366 68.4011V66.7671C238.366 66.4268 238.64 66.1529 238.98 66.1529H239.876C240.216 66.1529 240.49 66.4268 240.49 66.7671V68.4011ZM237.108 68.4011C237.108 68.7415 236.834 69.0154 236.493 69.0154H235.598C235.258 69.0154 234.984 68.7415 234.984 68.4011V66.7671C234.984 66.4268 235.258 66.1529 235.598 66.1529H236.493C236.834 66.1529 237.108 66.4268 237.108 66.7671V68.4011ZM233.726 68.4011C233.726 68.7415 233.452 69.0154 233.111 69.0154H232.216C231.876 69.0154 231.602 68.7415 231.602 68.4011V66.7671C231.602 66.4268 231.876 66.1529 232.216 66.1529H233.111C233.452 66.1529 233.726 66.4268 233.726 66.7671V68.4011ZM230.342 68.4011C230.342 68.7415 230.068 69.0154 229.729 69.0154H228.834C228.494 69.0154 228.22 68.7415 228.22 68.4011V66.7671C228.22 66.4268 228.494 66.1529 228.834 66.1529H229.729C230.068 66.1529 230.342 66.4268 230.342 66.7671V68.4011ZM226.96 68.4011C226.96 68.7415 226.686 69.0154 226.346 69.0154H225.452C225.112 69.0154 224.838 68.7415 224.838 68.4011V66.7671C224.838 66.4268 225.112 66.1529 225.452 66.1529H226.346C226.686 66.1529 226.96 66.4268 226.96 66.7671V68.4011ZM223.578 68.4011C223.578 68.7415 223.304 69.0154 222.964 69.0154H222.07C221.729 69.0154 221.455 68.7415 221.455 68.4011V66.7671C221.455 66.4268 221.729 66.1529 222.07 66.1529H222.964C223.304 66.1529 223.578 66.4268 223.578 66.7671V68.4011ZM220.196 68.4011C220.196 68.7415 219.922 69.0154 219.581 69.0154H218.688C218.347 69.0154 218.073 68.7415 218.073 68.4011V66.7671C218.073 66.4268 218.347 66.1529 218.688 66.1529H219.581C219.922 66.1529 220.196 66.4268 220.196 66.7671V68.4011ZM216.814 68.4011C216.814 68.7415 216.54 69.0154 216.199 69.0154H215.306C214.965 69.0154 214.691 68.7415 214.691 68.4011V66.7671C214.691 66.4268 214.965 66.1529 215.306 66.1529H216.199C216.54 66.1529 216.814 66.4268 216.814 66.7671V68.4011ZM213.432 68.4011C213.432 68.7415 213.158 69.0154 212.817 69.0154H211.923C211.583 69.0154 211.309 68.7415 211.309 68.4011V66.7671C211.309 66.4268 211.583 66.1529 211.923 66.1529H212.817C213.158 66.1529 213.432 66.4268 213.432 66.7671V68.4011ZM210.05 68.4011C210.05 68.7415 209.776 69.0154 209.435 69.0154H208.541C208.201 69.0154 207.927 68.7415 207.927 68.4011V66.7671C207.927 66.4268 208.201 66.1529 208.541 66.1529H209.435C209.776 66.1529 210.05 66.4268 210.05 66.7671V68.4011ZM206.667 68.4011C206.667 68.7415 206.393 69.0154 206.053 69.0154H205.159C204.819 69.0154 204.545 68.7415 204.545 68.4011V66.7671C204.545 66.4268 204.819 66.1529 205.159 66.1529H206.053C206.393 66.1529 206.667 66.4268 206.667 66.7671V68.4011ZM203.285 68.4011C203.285 68.7415 203.011 69.0154 202.671 69.0154H201.776C201.437 69.0154 201.163 68.7415 201.163 68.4011V66.7671C201.163 66.4268 201.437 66.1529 201.776 66.1529H202.671C203.011 66.1529 203.285 66.4268 203.285 66.7671V68.4011Z" fill="#DEEAFD"/>
<path d="M255.09 85.4564C253.641 85.4564 252.25 86.032 251.224 87.0571C250.199 88.0822 249.622 89.4729 249.622 90.9221C249.623 92.2077 250.078 93.4508 250.905 94.4347H248.482C248.974 93.7074 249.237 92.8486 249.237 91.9711C249.237 89.542 247.268 87.573 244.839 87.573C242.409 87.573 240.439 89.542 240.439 91.9711C240.441 93.9906 241.819 95.7509 243.782 96.2362V97.0087H240.12C239.721 97.0087 239.401 97.3291 239.401 97.728V110.767C239.401 111.166 239.721 111.487 240.12 111.487H262.248C262.647 111.487 262.969 111.166 262.969 110.767V107.66L266.363 109.552V99.1971L262.969 101.089V97.728C262.969 97.3291 262.647 97.0087 262.248 97.0087H257.551V95.8015C259.394 94.8734 260.558 92.9855 260.559 90.9221C260.559 89.4729 259.983 88.0822 258.958 87.0571C257.931 86.032 256.541 85.4564 255.09 85.4564Z" fill="#3065C3"/>
<path d="M358.366 102.486H389.178C391.874 102.486 394.044 104.655 394.044 107.35V139.243C394.044 141.936 391.874 144.106 389.178 144.106H358.366C355.67 144.106 353.499 141.936 353.499 139.243V107.35C353.499 104.655 355.67 102.486 358.366 102.486Z" fill="#162D58"/>
<path d="M348.601 108.537H377.286C378.343 108.537 379.194 109.388 379.194 110.445V116.287C379.194 117.344 378.343 118.195 377.286 118.195H348.601C347.544 118.195 346.693 117.344 346.693 116.287V110.445C346.693 109.388 347.544 108.537 348.601 108.537Z" fill="#3596FF"/>
<path d="M381.103 118.74H397.886C398.943 118.74 399.794 119.591 399.794 120.648V126.488C399.794 127.545 398.943 128.398 397.886 128.398H381.103C380.046 128.398 379.194 127.545 379.194 126.488V120.648C379.194 119.591 380.046 118.74 381.103 118.74Z" fill="#D9E9FE"/>
<path d="M361.04 128.398H377.286C378.343 128.398 379.194 129.249 379.194 130.306V136.146C379.194 137.203 378.343 138.054 377.286 138.054H361.04C359.983 138.054 359.132 137.203 359.132 136.146V130.306C359.132 129.249 359.983 128.398 361.04 128.398Z" fill="#004EA1"/>
<path d="M374.654 94.5916L378.2 99.83V150.35H380.285V99.83L383.829 94.5916H374.654Z" fill="#2780F5"/>
<path d="M94.7844 180.93H298.956L268.642 262.369H72.2162C67.9383 262.369 65.6873 259.123 67.1883 255.118L94.7844 180.93Z" fill="#374154"/>
<path d="M95.9208 191.238H300.093L273.43 262.369H77.0041C72.7262 262.369 70.4752 259.123 71.9762 255.118L95.9208 191.238Z" fill="#252C38"/>
<path d="M89.9008 121.017L84.8763 124.373C83.4846 125.731 82.9034 127.749 83.289 129.885L107.156 255.139C107.916 259.132 111.771 262.369 115.765 262.369H306.457C310.451 262.369 313.071 259.132 312.31 255.139L288.444 129.885C287.683 125.891 283.829 122.654 279.835 122.654H89.9234L89.9008 121.017Z" fill="#404F6D"/>
<path d="M93.1332 120.157H283.825C285.742 120.157 287.727 120.932 289.341 122.312C290.956 123.692 292.068 125.564 292.434 127.516L316.3 255.009C317.061 259.074 314.441 262.369 310.447 262.369H119.755C117.837 262.369 115.853 261.594 114.238 260.213C112.623 258.833 111.511 256.961 111.145 255.009L87.2789 127.516C86.9136 125.564 87.3251 123.692 88.4228 122.312C89.5209 120.932 91.2151 120.157 93.1332 120.157Z" fill="#1C212B"/>
<path d="M97.6174 130.798H283.325L305.962 251.728H120.255L97.6174 130.798Z" fill="#1C3053"/>
<path d="M113.967 218.136H299.674L305.962 251.728H120.255L113.967 218.136Z" fill="#172845"/>
<path d="M186.032 139.431H281.548L292.891 200.028H197.375L186.032 139.431Z" fill="#172845"/>
<path d="M113.967 218.136H299.674L298.767 213.295H113.061L113.967 218.136Z" fill="#0B1932"/>
<path d="M113.967 218.136H151.454L157.742 251.728H120.255L113.967 218.136Z" fill="#203861"/>
<path d="M209.923 230.079H265.962C267.002 230.079 267.998 230.931 268.196 231.989L268.769 235.053C268.967 236.11 268.289 236.962 267.25 236.962H211.212C210.172 236.962 209.176 236.11 208.978 235.053L208.404 231.989C208.206 230.931 208.883 230.079 209.923 230.079Z" fill="#FFBA08"/>
<path d="M210.817 231.854L211.441 235.187L213.795 233.521L210.817 231.854Z" fill="white"/>
<path d="M98.5236 135.64H284.23L283.325 130.797H97.6174L98.5236 135.64Z" fill="#5693FF"/>
<path d="M199.23 209.938H229.369L227.979 202.513H197.84L199.23 209.938Z" fill="#172845"/>
<path d="M264.608 209.938H294.746L293.357 202.513H263.218L264.608 209.938Z" fill="#172845"/>
<path d="M288.3 205.41C288.253 205.411 288.214 205.431 288.188 205.465C288.163 205.499 288.154 205.544 288.163 205.591C288.174 205.638 288.2 205.683 288.24 205.716L290.32 207.436L291.757 205.716C291.783 205.683 291.795 205.638 291.787 205.591C291.779 205.544 291.753 205.499 291.714 205.465C291.634 205.394 291.524 205.392 291.467 205.459L290.228 206.943L288.433 205.459C288.394 205.427 288.347 205.409 288.3 205.41Z" fill="#345A9C"/>
<path d="M231.92 209.938H262.057L260.667 202.513H230.53L231.92 209.938Z" fill="#172845"/>
<path d="M185.226 238.736H228.421C229.461 238.736 230.457 239.588 230.655 240.646L231.228 243.71C231.426 244.768 230.749 245.619 229.709 245.619H186.514C185.474 245.619 184.478 244.768 184.28 243.71L183.707 240.646C183.509 239.588 184.186 238.736 185.226 238.736Z" fill="#0087F8"/>
<path d="M188.318 240.035L186.151 240.623L186.267 241.241L186.605 243.05C186.262 243.044 185.961 243.406 186.069 243.676C186.244 244.12 186.679 243.984 186.776 243.846C186.875 243.708 186.943 243.589 186.867 243.188L186.536 241.415L188.253 240.949L188.588 242.742C188.246 242.735 187.945 243.097 188.052 243.367C188.227 243.811 188.662 243.675 188.761 243.537C188.858 243.399 188.926 243.281 188.851 242.88L188.434 240.653L188.371 240.314L188.318 240.035Z" fill="white"/>
<path d="M232.857 238.736H276.052C277.092 238.736 278.088 239.588 278.286 240.646L278.86 243.71C279.058 244.768 278.381 245.619 277.341 245.619H234.146C233.106 245.619 232.11 244.768 231.912 243.71L231.338 240.646C231.14 239.588 231.817 238.736 232.857 238.736Z" fill="#18E0A5"/>
<path d="M235.949 240.035L233.783 240.623L233.899 241.241L234.236 243.05C233.895 243.044 233.594 243.406 233.701 243.676C233.876 244.12 234.311 243.984 234.408 243.846C234.506 243.708 234.574 243.589 234.498 243.188L234.167 241.415L235.884 240.949L236.221 242.742C235.878 242.735 235.577 243.097 235.683 243.367C235.859 243.811 236.294 243.675 236.392 243.537C236.489 243.399 236.557 243.281 236.483 242.88L236.065 240.653L236.003 240.314L235.949 240.035Z" fill="white"/>
<path d="M157.629 221.422H213.667C214.707 221.422 215.703 222.274 215.901 223.331L216.475 226.395C216.673 227.453 215.996 228.305 214.956 228.305H158.917C157.877 228.305 156.881 227.453 156.683 226.395L156.11 223.331C155.912 222.274 156.589 221.422 157.629 221.422Z" fill="#FF1399"/>
<path d="M158.522 223.197L159.146 226.53L161.501 224.863L158.522 223.197Z" fill="white"/>
<path d="M263.911 221.422C262.872 221.422 262.194 222.274 262.392 223.331L262.967 226.395C263.163 227.453 264.16 228.305 265.2 228.305H301.577L300.288 221.422H263.911Z" fill="#FF1399"/>
<path d="M264.806 223.197L265.43 226.53L267.784 224.863L264.806 223.197Z" fill="white"/>
<path d="M162.48 247.394C161.44 247.394 160.763 248.245 160.962 249.303L161.415 251.728H208.363L207.91 249.303C207.711 248.245 206.715 247.394 205.675 247.394H162.48Z" fill="#18E0A5"/>
<path d="M165.573 248.692L163.406 249.28L163.522 249.899L163.86 251.708C163.809 251.707 163.758 251.714 163.711 251.728H164.1L163.79 250.072L165.507 249.606L165.844 251.399C165.62 251.395 165.414 251.547 165.328 251.728H166.132C166.127 251.672 166.119 251.609 166.106 251.537L165.688 249.31L165.626 248.972L165.573 248.692Z" fill="white"/>
<path d="M257.028 169.73C258.877 179.603 252.51 187.607 242.808 187.607C238.149 187.607 233.328 185.724 229.406 182.371C225.484 179.018 222.781 174.471 221.894 169.73C221.007 164.988 222.006 160.441 224.673 157.088C227.341 153.736 231.455 151.852 236.114 151.852C245.817 151.852 255.18 159.856 257.028 169.73Z" fill="#00338D"/>
<path d="M255.564 169.73C257.258 178.78 251.422 186.117 242.529 186.117C238.258 186.117 233.839 184.39 230.244 181.317C226.649 178.244 224.173 174.076 223.359 169.73C222.545 165.384 223.461 161.216 225.906 158.142C228.35 155.069 232.123 153.342 236.394 153.342C245.287 153.342 253.87 160.679 255.564 169.73Z" fill="#5693FF"/>
<path d="M234.308 162.599L236.979 176.861L246.768 169.73L234.308 162.599Z" fill="white"/>
<path d="M182.321 139.432H141.113L154.312 209.938H195.52L182.321 139.432Z" fill="#172845"/>
<path d="M137.468 139.432H102.508L115.706 209.938H150.666L137.468 139.432Z" fill="#172845"/>
<path d="M182.321 139.432H141.113L141.886 143.557H183.092L182.321 139.432Z" fill="#2E59A3"/>
<path d="M102.508 139.432L103.28 143.557H138.239L137.468 139.432H102.508Z" fill="#2E59A3"/>
<path d="M119.381 221.422H147.269C148.309 221.422 149.306 222.274 149.504 223.331L150.077 226.395C150.275 227.453 149.598 228.305 148.558 228.305H120.669C119.63 228.305 118.633 227.453 118.435 226.395L117.862 223.331C117.664 222.274 118.341 221.422 119.381 221.422Z" fill="#264373"/>
<path d="M121.001 230.079H148.891C149.931 230.079 150.927 230.931 151.125 231.989L151.698 235.053C151.896 236.11 151.218 236.962 150.179 236.962H122.29C121.25 236.962 120.254 236.11 120.056 235.053L119.482 231.989C119.284 230.931 119.962 230.079 121.001 230.079Z" fill="#264373"/>
<path d="M122.622 238.736H150.511C151.551 238.736 152.547 239.588 152.745 240.646L153.318 243.71C153.516 244.768 152.839 245.619 151.799 245.619H123.911C122.871 245.619 121.875 244.768 121.677 243.71L121.103 240.646C120.905 239.588 121.582 238.736 122.622 238.736Z" fill="#264373"/>
<path d="M124.243 247.394C123.203 247.394 122.526 248.245 122.724 249.303L123.178 251.728H154.82L154.366 249.303C154.168 248.245 153.172 247.394 152.132 247.394H124.243Z" fill="#264373"/>
<path d="M121.997 244.508C122.416 245.165 123.151 245.619 123.91 245.619H151.799C152.559 245.619 153.124 245.165 153.297 244.508H121.997Z" fill="#0087F8"/>
<path d="M144.234 145.489H181.467L186.834 174.158H149.601L144.234 145.489Z" fill="#0B1932"/>
<path d="M147.102 148.39L147.356 152.231L146.187 148.468L146.14 150.705L145.264 148.503L145.087 150.045L149.601 174.158H186.834L186.754 173.728H182.305L181.402 171.132L180.785 172.289L180.802 170.155L180.515 173.075L179.936 172.21L179.757 173.479L178.977 171.548L178.968 173.728H169.485L168.569 171.391L168.554 173.873L167.638 171.537L167.493 173.322L166.829 170.2L166.655 172.256L165.566 169.428L165.211 170.515L163.889 166.438L163.679 168.302L162.117 162.519L162.609 167.707L161.512 164.406L161.849 168.763L160.899 166.247L161.003 169.358L160.142 167.325L160.301 170.728L159.489 168.954L159.742 172.862L158.985 171.379L158.751 172.685L157.787 170.09L157.832 172.895L156.187 166.663L156.104 168.785L154.63 163.462L154.705 166.426L153.446 162.26L153.252 163.777L151.609 157.566L151.426 159.066L150.069 154.302L149.843 155.581L148.798 152.478L148.65 154.175L147.102 148.39Z" fill="#18366D"/>
<path d="M184.328 176.612H187.294L187.858 179.629H184.893L184.328 176.612Z" fill="#18E0A5"/>
<path d="M179.739 176.612H182.704L183.269 179.629H180.303L179.739 176.612Z" fill="#0087F8"/>
<path d="M175.15 176.612H178.116L178.679 179.629H175.715L175.15 176.612Z" fill="#FF1399"/>
<path d="M151.572 184.688H188.805L189.649 189.198H152.416L151.572 184.688Z" fill="#0B1932"/>
<path d="M152.658 190.494H189.892L190.736 195.003H153.503L152.658 190.494Z" fill="#0B1932"/>
<path d="M153.745 196.299H190.979L193.176 208.035H155.942L153.745 196.299Z" fill="#0B1932"/>
<path d="M136.874 145.308H105.3L106.217 150.205H137.792L136.874 145.308Z" fill="#0B1932"/>
<path d="M138.067 151.676H106.492L111.452 178.17H143.027L138.067 151.676Z" fill="#0B1932"/>
<path d="M137.263 151.676C128.539 154.435 126.39 160.114 124.354 165.493C122.267 171.008 120.307 176.203 111.409 177.944L111.452 178.17H112.542C120.754 176.216 122.763 171.027 124.773 165.715C126.86 160.201 128.96 154.55 138.11 151.906L138.067 151.676H137.263Z" fill="#4077D6"/>
<path d="M121.77 173.501C121.835 173.844 121.762 174.174 121.569 174.416C121.376 174.659 121.078 174.795 120.741 174.795C120.403 174.795 120.054 174.659 119.77 174.416C119.486 174.174 119.291 173.844 119.227 173.501C119.093 172.786 119.554 172.207 120.256 172.207C120.959 172.207 121.636 172.786 121.77 173.501Z" fill="#0B1932"/>
<path d="M120.209 171.955C119.373 171.955 118.82 172.65 118.979 173.501C119.138 174.352 119.952 175.047 120.788 175.047C121.624 175.047 122.177 174.352 122.017 173.501C121.858 172.65 121.045 171.955 120.209 171.955ZM120.303 172.459C120.872 172.459 121.415 172.922 121.523 173.501C121.632 174.08 121.263 174.544 120.694 174.544C120.125 174.544 119.582 174.08 119.473 173.501C119.365 172.922 119.734 172.459 120.303 172.459Z" fill="#4077D6"/>
<path d="M129.906 157.641C129.97 157.984 129.898 158.314 129.705 158.557C129.512 158.799 129.214 158.936 128.876 158.936C128.539 158.936 128.19 158.799 127.906 158.557C127.622 158.314 127.426 157.984 127.362 157.641C127.228 156.927 127.689 156.347 128.392 156.347C128.729 156.347 129.078 156.483 129.362 156.726C129.646 156.968 129.842 157.298 129.906 157.641Z" fill="#0B1932"/>
<path d="M128.345 156.096C127.509 156.096 126.956 156.791 127.115 157.641C127.275 158.492 128.087 159.187 128.923 159.187C129.759 159.187 130.313 158.492 130.153 157.641C129.994 156.791 129.181 156.095 128.345 156.096ZM128.439 156.598C129.008 156.598 129.551 157.062 129.659 157.641C129.767 158.22 129.398 158.684 128.829 158.684C128.26 158.684 127.717 158.22 127.609 157.641C127.501 157.062 127.87 156.598 128.439 156.598Z" fill="#4077D6"/>
<path d="M143.883 182.745H112.308L112.929 186.064H144.504L143.883 182.745Z" fill="#0B1932"/>
<path d="M144.625 186.712H113.051L113.672 190.031H145.247L144.625 186.712Z" fill="#0B1932"/>
<path d="M145.368 190.68H113.793L114.415 193.999H145.99L145.368 190.68Z" fill="#0B1932"/>
<path d="M130.725 182.745H112.308L112.929 186.064H131.346L130.725 182.745Z" fill="#C1D2F1"/>
<path d="M126.665 186.712H113.051L113.672 190.031H127.286L126.665 186.712Z" fill="#C1D2F1"/>
<path d="M140.401 190.68H113.793L114.415 193.999H141.024L140.401 190.68Z" fill="#C1D2F1"/>
<path d="M148.022 204.858H138.255L138.877 208.177H148.643L148.022 204.858Z" fill="#0B1932"/>
<path d="M136.86 204.858H128.819L129.441 208.177H137.481L136.86 204.858Z" fill="#0B1932"/>
</g>
<defs>
<clipPath id="clip0_41_23523">
<rect width="500" height="299.145" fill="white" transform="translate(0 0.427246)"/>
</clipPath>
</defs>
</svg>
